<?xml version="1.0" encoding="UTF-8"?>
<svg width="101px" height="101px" viewBox="0 0 101 101" version="1.1" xmlns="http://www.w3.org/2000/svg" xmlns:xlink="http://www.w3.org/1999/xlink">
    <!-- Generator: Sketch 50.2 (55047) - http://www.bohemiancoding.com/sketch -->
    <title>building</title>
    <desc>Created with Sketch.</desc>
    <defs></defs>
    <g id="Page-1" stroke="none" stroke-width="1" fill="none" fill-rule="evenodd">
        <g id="building" fill-rule="nonzero">
            <path d="M71.3332031,93 L24.6666016,93 C23.7466797,93 23,93.7466797 23,94.6666016 L23,98 C23,98.9199219 23.7466797,99.6666016 24.6666016,99.6666016 C25.5865234,99.6666016 26.3332031,98.9199219 26.3332031,98 L26.3332031,96.3333984 L71.3332031,96.3333984 C72.253125,96.3333984 72.9998047,95.5867187 72.9998047,94.6667969 C72.9998047,93.746875 72.2533203,93 71.3332031,93 Z" id="Shape" fill="#7E7E7E"></path>
            <path d="M36.6666016,41.6666016 C36.6666016,42.5865234 37.4132812,43.3332031 38.3332031,43.3332031 L45,43.3332031 C45.9199219,43.3332031 46.6666016,42.5865234 46.6666016,41.6666016 L46.6666016,31.6666016 C46.6666016,30.7466797 45.9199219,30 45,30 L38.3333984,30 C37.4134766,30 36.6667969,30.7466797 36.6667969,31.6666016 L36.6667969,41.6666016 L36.6666016,41.6666016 Z M40,33.3333984 L43.3333984,33.3333984 L43.3333984,40 L40,40 L40,33.3333984 Z" id="Shape" fill="#E53C3C"></path>
            <path d="M21.6666016,20 L1.66660156,20 C0.746679687,20 0,20.7466797 0,21.6666016 L0,55 C0,55.9199219 0.746679688,56.6666016 1.66660156,56.6666016 C2.58652344,56.6666016 3.33320312,55.9199219 3.33320312,55 L3.33320312,23.3333984 L21.6666016,23.3333984 C22.5865234,23.3333984 23.3332031,22.5867187 23.3332031,21.6667969 C23.3332031,20.746875 22.5867188,20 21.6666016,20 Z" id="Shape" fill="#7E7E7E"></path>
            <path d="M98.6666016,20 L78.6666016,20 C77.7466797,20 77,20.7466797 77,21.6666016 L77,85 C77,85.9199219 77.7466797,86.6666016 78.6666016,86.6666016 C79.5865234,86.6666016 80.3332031,85.9199219 80.3332031,85 L80.3332031,23.3333984 L98.6666016,23.3333984 C99.5865234,23.3333984 100.333203,22.5867187 100.333203,21.6667969 C100.333203,20.746875 99.5867188,20 98.6666016,20 Z" id="Shape-Copy-2" fill="#7E7E7E" transform="translate(88.666602, 53.333301) scale(-1, 1) translate(-88.666602, -53.333301) "></path>
            <path d="M80,81.6666016 C80,82.5865234 80.7466797,83.3332031 81.6666016,83.3332031 L88.3332031,83.3332031 C89.253125,83.3332031 89.9998047,82.5865234 89.9998047,81.6666016 L89.9998047,71.6666016 C89.9998047,70.7466797 89.253125,70 88.3332031,70 L81.6666016,70 C80.7466797,70 80,70.7466797 80,71.6666016 L80,81.6666016 Z M83.3333984,73.3333984 L86.6667969,73.3333984 L86.6667969,80 L83.3333984,80 L83.3333984,73.3333984 Z" id="Shape" fill="#7E7E7E"></path>
            <path d="M8.33339844,60 C0.094921875,60 0,81.45 0,81.6666016 C0,85.6916016 2.86835937,89.0566406 6.66660156,89.8316406 L6.66660156,98.3333984 C6.66660156,99.2533203 7.41328125,100 8.33320313,100 C9.253125,100 9.99980469,99.2533203 9.99980469,98.3333984 L9.99980469,89.8316406 C13.7980469,89.0566406 16.6664063,85.6916016 16.6664063,81.6666016 C16.6666016,81.45 16.5716797,60 8.33339844,60 Z M8.33339844,86.6666016 C5.57675781,86.6666016 3.33339844,84.4232422 3.33339844,81.6666016 C3.33339844,73.3632813 5.56347656,63.3332031 8.33339844,63.3332031 C11.1033203,63.3332031 13.3333984,73.3632812 13.3333984,81.6666016 C13.3333984,84.4232422 11.0900391,86.6666016 8.33339844,86.6666016 Z" id="Shape" fill="#FF8282"></path>
            <path d="M18.3333984,50 L11.6666016,50 C10.7466797,50 10,50.7466797 10,51.6666016 L10,55 C10,55.9199219 10.7466797,56.6666016 11.6666016,56.6666016 C12.5865234,56.6666016 13.3332031,55.9199219 13.3332031,55 L13.3332031,53.3333984 L16.6666016,53.3333984 L16.6666016,61.6667969 C16.6666016,62.5867188 17.4132813,63.3333984 18.3332031,63.3333984 C19.253125,63.3333984 19.9998047,62.5867188 19.9998047,61.6667969 L19.9998047,51.6667969 C20,50.7466797 19.2533203,50 18.3333984,50 Z" id="Shape" fill="#7E7E7E"></path>
            <path d="M81.6666016,43.3333984 L88.3332031,43.3333984 C89.253125,43.3333984 89.9998047,42.5867187 89.9998047,41.6667969 L89.9998047,31.6667969 C89.9998047,30.746875 89.253125,30.0001953 88.3332031,30.0001953 L81.6666016,30.0001953 C80.7466797,30.0001953 80,30.746875 80,31.6667969 L80,41.6667969 C80,42.5867188 80.7466797,43.3333984 81.6666016,43.3333984 Z M83.3333984,33.3333984 L86.6667969,33.3333984 L86.6667969,40 L83.3333984,40 L83.3333984,33.3333984 Z" id="Shape" fill="#7E7E7E"></path>
            <path d="M18.3333984,30 L11.6666016,30 C10.7466797,30 10,30.7466797 10,31.6666016 L10,41.6666016 C10,42.5865234 10.7466797,43.3332031 11.6666016,43.3332031 L18.3332031,43.3332031 C19.253125,43.3332031 19.9998047,42.5865234 19.9998047,41.6666016 L19.9998047,31.6666016 C20,30.7466797 19.2533203,30 18.3333984,30 Z M16.6666016,40 L13.3333984,40 L13.3333984,33.3333984 L16.6667969,33.3333984 L16.6667969,40 L16.6666016,40 Z" id="Shape" fill="#7E7E7E"></path>
            <path d="M53.3333984,41.6666016 C53.3333984,42.5865234 54.0800781,43.3332031 55,43.3332031 L61.6666016,43.3332031 C62.5865234,43.3332031 63.3332031,42.5865234 63.3332031,41.6666016 L63.3332031,31.6666016 C63.3332031,30.7466797 62.5865234,30 61.6666016,30 L55,30 C54.0800781,30 53.3333984,30.7466797 53.3333984,31.6666016 L53.3333984,41.6666016 Z M56.6666016,33.3333984 L60,33.3333984 L60,40 L56.6666016,40 L56.6666016,33.3333984 Z" id="Shape" fill="#E53C3C"></path>
            <path d="M96.9998047,90.6400391 C96.4765625,90.4533203 95.9214844,90.3333984 95.3332031,90.3333984 C95.0449219,90.3333984 94.7582031,90.3583984 94.4765625,90.4083984 C93.3265625,88.3367188 91.1382813,87 88.6666016,87 C86.1949219,87 84.0066406,88.3367188 82.8566406,90.4083984 C82.575,90.3583984 82.2882813,90.3333984 82,90.3333984 C79.2433594,90.3333984 77,92.5767578 77,95.3333984 C77,98.0900391 79.2433594,100.333398 82,100.333398 L95.3330078,100.333398 C98.0896484,100.333398 100.333008,98.7700371 100.333008,95.3333984 C100.333008,93.042306 99.2219401,91.4778529 96.9998047,90.6400391 Z M95.3330078,97 L81.9996094,97 C81.08125,97 80.3330078,96.2517578 80.3330078,95.3333984 C80.3330078,94.4150391 81.08125,93.6667969 81.9996094,93.6667969 C82.3195312,93.6667969 82.6228516,93.7583984 82.9029297,93.9384766 C83.3595703,94.2318359 83.9296875,94.2851563 84.4330078,94.0818359 C84.9363281,93.8785156 85.3080078,93.4417969 85.4296875,92.9134766 C85.7814453,91.3951172 87.1130859,90.3333984 88.6664063,90.3333984 C90.2197266,90.3333984 91.5513672,91.3951172 91.903125,92.9134766 C92.0248047,93.4417969 92.3964844,93.8785156 92.8998047,94.0818359 C93.4015625,94.2851563 93.9730469,94.2318359 94.4298828,93.9384766 C95.5148438,93.2384766 96.9998047,94.0951172 96.9998047,95.3333984 C96.9996094,96.2517578 96.2513672,97 95.3330078,97 Z" id="Shape" fill="#FF8282"></path>
            <path d="M55,23.3333984 L61.6666016,23.3333984 C62.5865234,23.3333984 63.3332031,22.5867188 63.3332031,21.6667969 L63.3332031,11.6667969 C63.3332031,10.746875 62.5865234,10.0001953 61.6666016,10.0001953 L55,10.0001953 C54.0800781,10.0001953 53.3333984,10.746875 53.3333984,11.6667969 L53.3333984,21.6667969 C53.3333984,22.5867188 54.0800781,23.3333984 55,23.3333984 Z M56.6666016,13.3333984 L60,13.3333984 L60,20 L56.6666016,20 L56.6666016,13.3333984 Z" id="Shape" fill="#E53C3C"></path>
            <path d="M53.3333984,61.6666016 C53.3333984,62.5865234 54.0800781,63.3332031 55,63.3332031 L61.6666016,63.3332031 C62.5865234,63.3332031 63.3332031,62.5865234 63.3332031,61.6666016 L63.3332031,51.6666016 C63.3332031,50.7466797 62.5865234,50 61.6666016,50 L55,50 C54.0800781,50 53.3333984,50.7466797 53.3333984,51.6666016 L53.3333984,61.6666016 Z M56.6666016,53.3333984 L60,53.3333984 L60,60 L56.6666016,60 L56.6666016,53.3333984 Z" id="Shape" fill="#E53C3C"></path>
            <path d="M38.3333984,23.3333984 L45,23.3333984 C45.9199219,23.3333984 46.6666016,22.5867188 46.6666016,21.6667969 L46.6666016,11.6667969 C46.6666016,10.746875 45.9199219,10.0001953 45,10.0001953 L38.3333984,10.0001953 C37.4134766,10.0001953 36.6667969,10.746875 36.6667969,11.6667969 L36.6667969,21.6667969 C36.6666016,22.5867188 37.4132813,23.3333984 38.3333984,23.3333984 Z M40,13.3333984 L43.3333984,13.3333984 L43.3333984,20 L40,20 L40,13.3333984 Z" id="Shape" fill="#E53C3C"></path>
            <path d="M36.6666016,61.6666016 C36.6666016,62.5865234 37.4132812,63.3332031 38.3332031,63.3332031 L45,63.3332031 C45.9199219,63.3332031 46.6666016,62.5865234 46.6666016,61.6666016 L46.6666016,51.6666016 C46.6666016,50.7466797 45.9199219,50 45,50 L38.3333984,50 C37.4134766,50 36.6667969,50.7466797 36.6667969,51.6666016 L36.6667969,61.6666016 L36.6666016,61.6666016 Z M40,53.3333984 L43.3333984,53.3333984 L43.3333984,60 L40,60 L40,53.3333984 Z" id="Shape" fill="#E53C3C"></path>
            <path d="M33.3333984,71.6666016 C33.3333984,72.5865234 34.0800781,73.3332031 35,73.3332031 L40,73.3332031 L40,88.3332031 C40,89.253125 40.7466797,89.9998047 41.6666016,89.9998047 C42.5865234,89.9998047 43.3332031,89.253125 43.3332031,88.3332031 L43.3332031,73.3332031 L56.6666016,73.3332031 L56.6666016,88.3332031 C56.6666016,89.253125 57.4132812,89.9998047 58.3332031,89.9998047 C59.253125,89.9998047 59.9998047,89.253125 59.9998047,88.3332031 L59.9998047,73.3332031 L64.9998047,73.3332031 C65.9197266,73.3332031 66.6664063,72.5865234 66.6664063,71.6666016 C66.6664063,70.7466797 65.9197266,70 64.9998047,70 L35,70 C34.0800781,70 33.3333984,70.7466797 33.3333984,71.6666016 Z" id="Shape" fill="#E53C3C"></path>
            <path d="M80,61.6666016 C80,62.5865234 80.7466797,63.3332031 81.6666016,63.3332031 L88.3332031,63.3332031 C89.253125,63.3332031 89.9998047,62.5865234 89.9998047,61.6666016 L89.9998047,51.6666016 C89.9998047,50.7466797 89.253125,50 88.3332031,50 L81.6666016,50 C80.7466797,50 80,50.7466797 80,51.6666016 L80,61.6666016 Z M83.3333984,53.3333984 L86.6667969,53.3333984 L86.6667969,60 L83.3333984,60 L83.3333984,53.3333984 Z" id="Shape" fill="#7E7E7E"></path>
            <path d="M71.6666016,0 L28.3333984,0 C27.4134766,0 26.6667969,0.746679687 26.6667969,1.66660156 L26.6667969,88.3332031 C26.6667969,89.253125 27.4134766,89.9998047 28.3333984,89.9998047 C29.2533203,89.9998047 30,89.253125 30,88.3332031 L30,3.33320313 L70,3.33320313 L70,88.3332031 C70,89.253125 70.7466797,89.9998047 71.6666016,89.9998047 C72.5865234,89.9998047 73.3332031,89.253125 73.3332031,88.3332031 L73.3332031,1.66660156 C73.3333984,0.746679687 72.5867188,0 71.6666016,0 Z" id="Shape" fill="#FF8282"></path>
        </g>
    </g>
</svg>