<?xml version="1.0" encoding="UTF-8"?>
<svg width="1721px" height="271px" viewBox="0 0 1721 271" version="1.1" xmlns="http://www.w3.org/2000/svg" xmlns:xlink="http://www.w3.org/1999/xlink">
    <!-- Generator: Sketch 50.2 (55047) - http://www.bohemiancoding.com/sketch -->
    <title>Logo full</title>
    <desc>Created with Sketch.</desc>
    <defs>
        <linearGradient x1="8.43333333%" y1="-8.335%" x2="90.75%" y2="107.19%" id="linearGradient-1">
            <stop stop-color="#D64541" offset="0%"></stop>
            <stop stop-color="#D4433F" offset="53%"></stop>
            <stop stop-color="#CC3C3A" offset="79%"></stop>
            <stop stop-color="#BF3030" offset="100%"></stop>
        </linearGradient>
        <linearGradient x1="-49.8971507%" y1="-31.432%" x2="146.000305%" y2="102.450667%" id="linearGradient-2">
            <stop stop-color="#FFFFFF" offset="0%"></stop>
            <stop stop-color="#C9C9C9" offset="100%"></stop>
        </linearGradient>
        <linearGradient x1="-3.57117117%" y1="-2.3009009%" x2="88.5333333%" y2="87.618018%" id="linearGradient-3">
            <stop stop-color="#FFFFFF" offset="0%"></stop>
            <stop stop-color="#C9C9C9" offset="100%"></stop>
        </linearGradient>
    </defs>
    <g id="Page-1" stroke="none" stroke-width="1" fill="none" fill-rule="evenodd">
        <g id="Logo-full" fill-rule="nonzero">
            <g id="Group" transform="translate(351.000000, 54.000000)" fill="#D64541">
                <path d="M80.22,136.92 C90.6225121,136.966785 100.830621,134.102141 109.69,128.65 C118.423333,123.143333 125.756667,114.706667 131.69,103.34 L154,112.94 C145.946667,128.86 135.576667,140.763333 122.89,148.65 C110.16431,156.815381 95.3397021,161.106075 80.22,161 C69.5027339,161.028728 58.887935,158.913928 49,154.78 C29.8257537,146.536598 14.528273,131.274893 6.24,112.12 C-2.07944913,92.1692236 -2.07944913,69.7207764 6.24,49.77 C14.5766489,30.673887 29.8630755,15.4625341 49,7.22 C58.887935,3.08607213 69.5027339,0.971272355 80.22,1 C95.3397021,0.89392513 110.16431,5.18461889 122.89,13.35 C135.556667,21.2433333 145.926667,33.1466667 154,49.06 L131.69,58.65 C125.756667,47.2233333 118.423333,38.8566667 109.69,33.55 C100.873704,27.9778534 90.6494885,25.0393021 80.22,25.08 C65.30677,24.8464734 50.9526762,30.7508148 40.52,41.41 C18.6943311,63.2912107 18.6943311,98.7087893 40.52,120.59 C50.9520031,131.250184 65.3065458,137.15471 80.22,136.92 Z" id="Shape"></path>
                <path d="M193,144 C181.919999,133.263675 175.768059,118.426642 176,103 C176,87.0666667 181.666667,73.4266667 193,62.08 C203.736325,50.999999 218.573358,44.8480585 234,45.08 C249.933333,45.08 263.573333,50.7466667 274.92,62.08 C286.266667,73.4133333 291.933333,87.0533333 291.92,103 C292.151941,118.426642 286.000001,133.263675 274.92,144 C263.586667,155.333333 249.946667,161 234,161 C218.573358,161.231941 203.736325,155.080001 193,144 Z M210,78.87 C198.523373,90.3386536 196.749225,108.318378 205.763006,121.80892 C214.776787,135.299463 232.066656,140.541459 247.054423,134.32778 C262.042191,128.114101 270.551266,112.176294 267.375675,96.2653348 C264.200083,80.3543761 250.224757,68.9041214 234,68.92 C224.977163,68.8008161 216.300948,72.3906001 210,78.85 L210,78.87 Z" id="Shape"></path>
                <path d="M1087,144 C1075.92,133.263675 1069.76806,118.426642 1070,103 C1070,87.0666667 1075.66667,73.4266667 1087,62.08 C1097.73632,50.999999 1112.57336,44.8480585 1128,45.08 C1143.93333,45.08 1157.57333,50.7466667 1168.92,62.08 C1180.26667,73.4133333 1185.93333,87.0533333 1185.92,103 C1186.15194,118.426642 1180,133.263675 1168.92,144 C1157.58667,155.333333 1143.94667,161 1128,161 C1112.57336,161.231941 1097.73632,155.080001 1087,144 Z M1104,78.87 C1092.52337,90.3386536 1090.74923,108.318378 1099.76301,121.80892 C1108.77679,135.299463 1126.06666,140.541459 1141.05442,134.32778 C1156.04219,128.114101 1164.55127,112.176294 1161.37567,96.2653348 C1158.20008,80.3543761 1144.22476,68.9041214 1128,68.92 C1118.97716,68.8008161 1110.30095,72.3906001 1104,78.85 L1104,78.87 Z" id="Shape"></path>
                <path d="M1225,144 C1213.92,133.263675 1207.76806,118.426642 1208,103 C1208,87.0666667 1213.66667,73.4266667 1225,62.08 C1235.73632,50.999999 1250.57336,44.8480585 1266,45.08 C1281.93333,45.08 1295.57333,50.7466667 1306.92,62.08 C1318.26667,73.4133333 1323.93333,87.0533333 1323.92,103 C1324.15194,118.426642 1318,133.263675 1306.92,144 C1295.58667,155.333333 1281.94667,161 1266,161 C1250.57336,161.231941 1235.73632,155.080001 1225,144 Z M1242,78.87 C1230.52337,90.3386536 1228.74923,108.318378 1237.76301,121.80892 C1246.77679,135.299463 1264.06666,140.541459 1279.05442,134.32778 C1294.04219,128.114101 1302.55127,112.176294 1299.37567,96.2653348 C1296.20008,80.3543761 1282.22476,68.9041214 1266,68.92 C1256.97716,68.8008161 1248.30095,72.3906001 1242,78.85 L1242,78.87 Z" id="Shape"></path>
                <path d="M510.05,45 C525.983333,45 539.623333,50.6666667 550.97,62 C562.316667,73.3333333 567.983333,86.9733333 567.97,102.92 L567.76,110.31 L476.72,110.31 C477.573333,115.93 481,121.853333 487,128.08 C498.189033,138.506282 515.006371,140.063899 527.92,131.87 C533.186667,128.723333 537.836667,123.22 541.87,115.36 L563.92,124.9 C557.766667,137.206667 550.1,146.233333 540.92,151.98 C531.731079,157.933275 520.998561,161.062289 510.05,160.98 C494.116667,160.98 480.476667,155.313333 469.13,143.98 C457.783333,132.646667 452.073333,118.98 452,102.98 C452,87.0466667 457.71,73.4066667 469.13,62.06 C480.55,50.7133333 494.19,45.0266667 510.05,45 Z M540,86.44 C538.286667,82.9533333 534.936667,79.26 529.95,75.36 C518.082492,66.7432322 502.017508,66.7432322 490.15,75.36 C485.296667,79.3266667 481.98,83.02 480.2,86.44 L540,86.44 Z" id="Shape"></path>
                <path d="M932,124.9 C925.84,137.206667 918.173333,146.233333 909,151.98 C899.800805,157.93514 889.058185,161.064059 878.1,160.98 C862.153333,160.98 848.466667,155.313333 837.04,143.98 C825.956975,133.245731 819.804467,118.407329 820.04,102.98 C820.04,87.0466667 825.706667,73.4066667 837.04,62.06 C848.373333,50.7133333 862.06,45.0466667 878.1,45.06 C889.058185,44.9759414 899.800805,48.1048599 909,54.06 C918.173333,59.8066667 925.84,68.8066667 932,81.06 L909.93,90.6 C905.89,82.8066667 901.223333,77.3033333 895.93,74.09 C881.623786,65.1111001 862.902707,67.9394336 851.887459,80.7438361 C840.872211,93.5482386 840.872211,112.481761 851.887459,125.286164 C862.902707,138.090566 881.623786,140.9189 895.93,131.94 C901.196667,128.793333 905.863333,123.29 909.93,115.43 L932,124.9 Z" id="Shape"></path>
                <path d="M406,1 L406,56 C382.925147,39.2879356 351.124448,41.8319915 331,62 C319.666667,73.3333333 314,86.9733333 314,102.92 C313.965903,124.726217 326.165688,144.708828 345.577781,154.642755 C364.989874,164.576683 388.333442,162.782997 406,150 L406,161 L430,161 L430,1 L406,1 Z M396.15,127.15 C384.798083,138.57849 367.020393,140.561553 353.429195,131.915413 C339.837997,123.269273 334.100066,106.326576 339.64062,91.2011457 C345.181174,76.0757149 360.505424,66.848246 376.465668,69.0270114 C392.425911,71.2057768 404.716228,84.2029666 406,100.26 L406,105.64 C405.487964,113.780955 401.978944,121.443798 396.15,127.15 Z" id="Shape"></path>
                <path d="M789.81,89 C789.31,88.33 788.81,87.67 788.24,87 C778.9,76.18 763.24,70.16 745.13,68.94 C719.68,67.31 705.96,60.71 705.96,49.14 C705.96,48.36 705.993333,47.6 706.06,46.86 C706.693333,39.68 710.383333,34.15 717.13,30.27 C720.364593,28.3531205 723.901721,27.0004905 727.59,26.27 C730.813453,25.4747975 734.119945,25.0652625 737.44,25.05 C747.93,25.05 758.75,28.83 765.93,36.38 C770.01,39.97 776.73,51.45 776.73,51.45 L798.01,43.45 C796.01,37 789.01,26 783.29,19.67 C771.5,7.22 754.89,1 737.43,1 C722.763333,1 710.21,5 699.77,13 C687.923333,22.0733333 682,34.1266667 682,49.16 C682,58.4933333 684.74,66.44 690.22,73 C690.72,73.67 691.22,74.33 691.79,75 C701.13,85.82 716.79,91.84 734.9,93.06 C760.35,94.69 774.07,101.29 774.07,112.86 C774.07,121.16 770.346667,127.453333 762.9,131.74 C759.665407,133.656879 756.128279,135.009509 752.44,135.74 C749.216547,136.535202 745.910055,136.944738 742.59,136.96 C732.1,136.96 721.28,133.18 714.1,125.63 C710.02,122.04 703.3,110.56 703.3,110.56 L682.02,118.56 C684.02,125.01 691.02,136.01 696.74,142.34 C708.5,154.78 725.11,161 742.57,161 C757.236667,161 769.79,157 780.23,149 C792.076667,139.926667 798,127.873333 798,112.84 C798,103.506667 795.26,95.56 789.78,89 L789.81,89 Z" id="Shape"></path>
                <rect id="Rectangle-path" x="1346" y="1" width="24" height="160"></rect>
                <path d="M1048,91.5 C1047.76982,65.7821216 1026.87887,45.0428214 1001.16,45 C993.040029,44.8735687 985.037177,46.9468463 978,51 L978,1 L954,1 L954,161 L978,161 L978,91.5 C978,78.7974508 988.297451,68.5 1001,68.5 C1013.70255,68.5 1024,78.7974508 1024,91.5 L1024,161 L1048,161 L1048,91.5 Z" id="Shape"></path>
                <path d="M660,69 L660,45 L648,45 C635.764448,44.8217319 623.812413,48.6885667 614,56 L614,45 L590,45 L590,161 L614,161 L614,100.29 C615.416158,82.5780984 630.231664,68.9434756 648,69 L660,69 Z" id="Shape"></path>
            </g>
            <g id="Group-2">
                <circle id="Oval" fill="url(#linearGradient-1)" cx="135.5" cy="135.5" r="135.5"></circle>
                <path d="M95.3419168,62.154 C91.5273203,65.8301985 88.4264026,70.1734683 86.1943471,74.9664533 C84.0531136,79.7735802 82.9623251,84.9777343 82.9940576,90.23504 C82.9940576,90.23504 82.8943319,105.913733 82.826337,107.423467 C82.5362258,113.98968 81.2533902,116.887467 77.3187567,121.642 C72.1103535,127.906267 61,127.05 61,127.05 L61,143.95 C61,143.95 72.1103535,143.093733 77.3187567,149.358 C81.2533902,154.09 82.5362258,157.019333 82.826337,163.576533 C82.8943319,165.086267 82.9940576,180.76496 82.9940576,180.76496 C82.9623251,186.022266 84.0531136,191.22642 86.1943471,196.033547 C88.4264026,200.826532 91.5273203,205.169802 95.3419168,208.846 C99.0136371,212.37472 110.300777,220 124.153588,220 L179.995467,220 L179.995467,203.1 L125.599611,203.1 C109.620829,203.1 103.501295,192.622 102.028074,189.602533 C100.724017,186.854871 100.066723,183.847952 100.106087,180.810027 L100.106087,168.263467 C100.106087,160.899573 98.6917949,154.108027 95.9040073,148.091627 C91.6022017,138.542 87.8624867,135.5 87.8624867,135.5 C87.8624867,135.5 91.6022017,132.458 95.9085403,122.91288 C98.6963279,116.891973 100.11062,110.104933 100.11062,102.74104 L100.11062,90.1899733 C100.071256,87.1520475 100.72855,84.1451294 102.032607,81.3974667 C103.501295,78.378 109.620829,67.9 125.604144,67.9 L180,67.9 L180,51 L124.153588,51 C110.300777,51 99.0136371,58.62528 95.3419168,62.154 Z" id="Shape" fill="url(#linearGradient-2)"></path>
                <path d="M135.5,10 C66.1878198,10 10,66.1878198 10,135.5 C10,204.81218 66.1878198,261 135.5,261 C204.81218,261 261,204.81218 261,135.5 C261,66.1878198 204.81218,10 135.5,10 Z M135.5,250.824324 C71.8093153,250.824324 20.1756757,199.190685 20.1756757,135.5 C20.1756757,71.8093153 71.8093153,20.1756757 135.5,20.1756757 C199.190685,20.1756757 250.824324,71.8093153 250.824324,135.5 C250.824324,199.190685 199.190685,250.824324 135.5,250.824324 Z" id="Shape" fill="url(#linearGradient-3)"></path>
            </g>
        </g>
    </g>
</svg>