<svg xmlns="http://www.w3.org/2000/svg" viewBox="0 0 1330 160"><defs><style>.cls-1{fill:#d64541;}</style></defs><title>Logo responsive</title><g id="Layer_2" data-name="Layer 2"><g id="Layer_1-2" data-name="Layer 1"><path class="cls-1" d="M153,143a55.92,55.92,0,0,1-17-41q0-23.9,17-40.92a55.92,55.92,0,0,1,41-17q23.9,0,40.92,17t17,40.92a55.92,55.92,0,0,1-17,41q-17,17-40.92,17A55.92,55.92,0,0,1,153,143Zm17-65.13a34.12,34.12,0,0,0,0,48.31,34,34,0,0,0,48.06,0A33.21,33.21,0,0,0,228,101.95a34,34,0,0,0-58-24.1Z"/><path class="cls-1" d="M1047,143a55.92,55.92,0,0,1-17-41q0-23.9,17-40.92a55.92,55.92,0,0,1,41-17q23.9,0,40.92,17t17,40.92a55.92,55.92,0,0,1-17,41q-17,17-40.92,17A55.92,55.92,0,0,1,1047,143Zm17-65.13a34.12,34.12,0,0,0,0,48.31,34,34,0,0,0,48.06,0,33.21,33.21,0,0,0,9.92-24.21,34,34,0,0,0-58-24.1Z"/><path class="cls-1" d="M1185,143a55.92,55.92,0,0,1-17-41q0-23.9,17-40.92a55.92,55.92,0,0,1,41-17q23.9,0,40.92,17t17,40.92a55.92,55.92,0,0,1-17,41q-17,17-40.92,17A55.92,55.92,0,0,1,1185,143Zm17-65.13a34.12,34.12,0,0,0,0,48.31,34,34,0,0,0,48.06,0,33.21,33.21,0,0,0,9.92-24.21,34,34,0,0,0-58-24.1Z"/><path class="cls-1" d="M470.05,44q23.9,0,40.92,17t17,40.92l-.21,7.39H436.72Q438,117.74,447,127.08a33.61,33.61,0,0,0,40.92,3.79q7.9-4.72,13.95-16.51l22.05,9.54q-9.23,18.46-23,27.08a56,56,0,0,1-30.87,9q-23.9,0-40.92-17t-17.13-41q0-23.9,17.13-40.92T470.05,44ZM500,85.44q-2.57-5.23-10.05-11.08a33.87,33.87,0,0,0-39.8,0q-7.28,5.95-9.95,11.08Z"/><path class="cls-1" d="M892,123.9q-9.24,18.46-23,27.08a56.07,56.07,0,0,1-30.9,9q-23.92,0-41.06-17a55.89,55.89,0,0,1-17-41q0-23.9,17-40.92T838.1,44A56.07,56.07,0,0,1,869,53q13.76,8.62,23,27l-22.07,9.54Q863.87,77.85,856,73a34.11,34.11,0,0,0-52,28.92,33.94,33.94,0,0,0,52,28.92q7.9-4.72,14-16.51Z"/><path class="cls-1" d="M366,0V55a57.94,57.94,0,0,0-75,6q-17,17-17,40.92a55.92,55.92,0,0,0,17,41,57.94,57.94,0,0,0,75,6v11h24V0Zm-9.85,126.15a34.15,34.15,0,0,1-58.26-24.21A34.1,34.1,0,0,1,366,99.26v5.38A33,33,0,0,1,356.15,126.15Z"/><path class="cls-1" d="M749.81,88c-.5-.67-1-1.33-1.57-2-9.34-10.82-25-16.84-43.11-18.06C679.68,66.33,666,59.73,666,48.16q0-1.17.1-2.28.95-10.77,11.07-16.59a33.15,33.15,0,0,1,10.46-4,41.93,41.93,0,0,1,9.85-1.22c10.49,0,21.31,3.78,28.49,11.33,4.08,3.59,10.8,15.07,10.8,15.07l21.28-8C756,36,749,25,743.28,18.67,731.5,6.22,714.89,0,697.43,0q-22,0-37.66,12Q642,25.61,642,48.16q0,14,8.22,23.84h0c.5.67,1,1.33,1.57,2,9.34,10.82,25,16.84,43.11,18.06,25.45,1.63,39.17,8.23,39.17,19.8q0,12.45-11.17,18.88a33.15,33.15,0,0,1-10.46,4,41.93,41.93,0,0,1-9.85,1.22c-10.49,0-21.31-3.78-28.49-11.33-4.08-3.59-10.8-15.07-10.8-15.07l-21.28,8c2,6.45,9,17.45,14.72,23.78C668.5,153.78,685.11,160,702.57,160q22,0,37.66-12Q758,134.39,758,111.84q0-14-8.22-23.84Z"/><rect class="cls-1" x="1306" width="24" height="160"/><path class="cls-1" d="M1008,90.5a45.62,45.62,0,0,0-13.7-32.72A47,47,0,0,0,938,50V0H914V160h24V90.5a23,23,0,1,1,46,0V160h24V90.5Z"/><path class="cls-1" d="M620,68V44H608a55.55,55.55,0,0,0-34,11V44H550V160h24V99.29A34,34,0,0,1,608,68Z"/><path class="cls-1" d="M43.47,39.52a13.48,13.48,0,0,1,1.25-5.89c1.38-2.86,5.77-9.52,16.78-9.52H114V0H60.23C46.78,0,35.67,7.35,31.68,11.23h0a42.63,42.63,0,0,0-9,12.84,37.82,37.82,0,0,0-3.21,15.45c0,5.38-.1,14.27-.14,15.19-.21,5-1,6.59-3.84,10C12.92,67.81,6.76,68.1,4.82,68L0,67.59V92.41L4.82,92c1.95-.15,8.07.11,10.61,3.21,2.83,3.45,3.63,5.08,3.84,10,0,.92.11,9.81.14,15.16a37.85,37.85,0,0,0,3.21,15.48,42.62,42.62,0,0,0,9,12.84c4,3.88,15.1,11.23,28.55,11.23H114V135.9H61.5c-11,0-15.41-6.66-16.78-9.52a13.49,13.49,0,0,1-1.25-5.89V109.27a48.6,48.6,0,0,0-2.91-17l.07-.07L39.37,89.4A51.72,51.72,0,0,0,34.1,80a51.72,51.72,0,0,0,5.27-9.4l1.26-2.83-.07-.07a48.6,48.6,0,0,0,2.91-17Z"/></g></g></svg>