<svg xmlns="http://www.w3.org/2000/svg" xmlns:xlink="http://www.w3.org/1999/xlink" viewBox="0 0 800 800"><defs><style>.cls-1{fill:url(#linear-gradient);}.cls-2{fill:url(#linear-gradient-2);}.cls-3{fill:url(#linear-gradient-3);}</style><linearGradient id="linear-gradient" x1="67.47" y1="-66.68" x2="726" y2="857.53" gradientUnits="userSpaceOnUse"><stop offset="0" stop-color="#d64541"/><stop offset="0.53" stop-color="#d4433f"/><stop offset="0.79" stop-color="#cc3c3a"/><stop offset="1" stop-color="#bf3030"/></linearGradient><linearGradient id="linear-gradient-2" x1="5.34" y1="-7.16" x2="691.03" y2="662.26" gradientUnits="userSpaceOnUse"><stop offset="0" stop-color="#fff"/><stop offset="1" stop-color="#c9c9c9"/></linearGradient><linearGradient id="linear-gradient-3" x1="3.57" y1="12.98" x2="685.14" y2="678.37" xlink:href="#linear-gradient-2"/></defs><title>Logo circle</title><g id="Layer_2" data-name="Layer 2"><g id="Layer_1-2" data-name="Layer 1"><circle class="cls-1" cx="400" cy="400" r="400"/><path class="cls-2" d="M281,183a127.26,127.26,0,0,0-26.9,37.9,109.93,109.93,0,0,0-9.41,45.18s-.29,46.39-.49,50.86C243.35,336.36,239.57,345,228,359c-15.31,18.53-48,16-48,16v50s32.69-2.53,48,16c11.57,14,15.35,22.64,16.2,42.06.19,4.47.49,50.86.49,50.86a109.93,109.93,0,0,0,9.41,45.18A127.26,127.26,0,0,0,281,617c10.79,10.44,44,33,84.75,33H530V600H370c-47,0-65-31-69.33-39.93a59.17,59.17,0,0,1-5.66-26V496.93c0-21.79-4.16-41.87-12.36-59.68h0C270,409,259,400,259,400s11-9,23.66-37.23h0c8.2-17.81,12.36-37.89,12.36-59.68V265.94a59.17,59.17,0,0,1,5.66-26C305,231,323,200,370,200H530V150H365.75C325,150,291.79,172.56,281,183Z"/><path class="cls-3" d="M400,30C195.65,30,30,195.65,30,400S195.65,770,400,770,770,604.35,770,400,604.35,30,400,30Zm0,710C212.22,740,60,587.78,60,400S212.22,60,400,60,740,212.22,740,400,587.78,740,400,740Z"/></g></g></svg>