<?xml version="1.0" encoding="UTF-8"?>
<svg width="128px" height="128px" viewBox="0 0 128 128" version="1.1" xmlns="http://www.w3.org/2000/svg" xmlns:xlink="http://www.w3.org/1999/xlink">
    <!-- Generator: Sketch 50.2 (55047) - http://www.bohemiancoding.com/sketch -->
    <title>Logo circle</title>
    <desc>Created with Sketch.</desc>
    <defs>
        <linearGradient x1="8.43375%" y1="-8.335%" x2="90.75%" y2="107.19125%" id="linearGradient-1">
            <stop stop-color="#D64541" offset="0%"></stop>
            <stop stop-color="#D4433F" offset="53%"></stop>
            <stop stop-color="#CC3C3A" offset="79%"></stop>
            <stop stop-color="#BF3030" offset="100%"></stop>
        </linearGradient>
        <linearGradient x1="-49.9028571%" y1="-31.432%" x2="146.008571%" y2="102.452%" id="linearGradient-2">
            <stop stop-color="#FFFFFF" offset="0%"></stop>
            <stop stop-color="#C9C9C9" offset="100%"></stop>
        </linearGradient>
        <linearGradient x1="-3.57162162%" y1="-2.3%" x2="88.5324324%" y2="87.6175676%" id="linearGradient-3">
            <stop stop-color="#FFFFFF" offset="0%"></stop>
            <stop stop-color="#C9C9C9" offset="100%"></stop>
        </linearGradient>
    </defs>
    <g id="Page-1" stroke="none" stroke-width="1" fill="none" fill-rule="evenodd">
        <g id="Logo-circle" fill-rule="nonzero">
            <circle id="Oval" fill="url(#linearGradient-1)" cx="64" cy="64" r="64"></circle>
            <path d="M44.96,29.28 C43.1652663,31.0200019 41.7062738,33.0756084 40.656,35.344 C39.6483039,37.6199265 39.1351307,40.0838124 39.1504,42.5728 C39.1504,42.5728 39.104,49.9952 39.072,50.7104 C38.936,53.8176 38.3312,55.2 36.48,57.44 C34.0304,60.4048 28.8,60 28.8,60 L28.8,68 C28.8,68 34.0304,67.5952 36.48,70.56 C38.3312,72.8 38.936,74.1824 39.072,77.2896 C39.1024,78.0048 39.1504,85.4272 39.1504,85.4272 C39.1351307,87.9161876 39.6483039,90.3800735 40.656,92.656 C41.7062738,94.9243916 43.1652663,96.9799981 44.96,98.72 C46.6864,100.3904 52,104 58.52,104 L84.8,104 L84.8,96 L59.2,96 C51.68,96 48.8,91.04 48.1072,89.6112 C47.4934104,88.3112733 47.1837135,86.8886377 47.2016,85.4512 L47.2016,79.5088 C47.2016,76.0224 46.536,72.8096 45.224,69.96 C43.2,65.44 41.44,64 41.44,64 C41.44,64 43.2,62.56 45.2256,58.0432 C46.5376,55.1936 47.2032,51.9808 47.2032,48.4944 L47.2032,42.5504 C47.1853135,41.1129623 47.4950104,39.6903267 48.1088,38.3904 C48.8,36.96 51.68,32 59.2,32 L84.8,32 L84.8,24 L58.52,24 C52,24 46.6864,27.6096 44.96,29.28 Z" id="Shape" fill="url(#linearGradient-2)"></path>
            <path d="M64,4.8 C31.304,4.8 4.8,31.304 4.8,64 C4.8,96.696 31.304,123.2 64,123.2 C96.696,123.2 123.2,96.696 123.2,64 C123.2,31.304 96.696,4.8 64,4.8 Z M64,118.4 C33.9552,118.4 9.6,94.0448 9.6,64 C9.6,33.9552 33.9552,9.6 64,9.6 C94.0448,9.6 118.4,33.9552 118.4,64 C118.4,94.0448 94.0448,118.4 64,118.4 Z" id="Shape" fill="url(#linearGradient-3)"></path>
        </g>
    </g>
</svg>