<?xml version="1.0" encoding="UTF-8"?>
<svg width="116px" height="100px" viewBox="0 0 116 100" version="1.1" xmlns="http://www.w3.org/2000/svg" xmlns:xlink="http://www.w3.org/1999/xlink">
    <!-- Generator: Sketch 50.2 (55047) - http://www.bohemiancoding.com/sketch -->
    <title>pin</title>
    <desc>Created with Sketch.</desc>
    <defs></defs>
    <g id="Page-1" stroke="none" stroke-width="1" fill="none" fill-rule="evenodd">
        <g id="pin">
            <path d="M28.1354375,69.2672727 C27.2219375,68.8327273 26.147125,69.2218182 25.719375,70.1254545 L16.2164375,90.1254545 C15.7850625,91.0327273 16.1693125,92.1181818 17.0719375,92.5490909 C17.3256875,92.6709091 17.5903125,92.7272727 17.8513125,92.7272727 C18.5291875,92.7272727 19.1780625,92.3454545 19.488,91.6909091 L28.9909375,71.6909091 C29.4223125,70.7836364 29.0380625,69.6981818 28.1354375,69.2672727 Z" id="Shape" fill="#FF8282" fill-rule="nonzero"></path>
            <path d="M39.588625,70.98 C38.6370625,70.7054545 37.6220625,71.26 37.348375,72.2272727 L34.74925,81.3181818 C34.47375,82.2818182 35.0301875,83.2890909 35.992625,83.5654545 C36.1575625,83.6127273 36.326125,83.6363636 36.492875,83.6363636 C37.2795,83.6363636 38.0063125,83.1181818 38.232875,82.3181818 L40.832,73.2272727 C41.1075,72.2636364 40.5510625,71.2563636 39.588625,70.98 Z" id="Shape" fill="#FF8282" fill-rule="nonzero"></path>
            <path d="M99.7835625,90.1272727 L96.3253125,82.8509091 C95.8975625,81.9472727 94.82275,81.5581818 93.90925,81.9927273 C93.006625,82.4236364 92.622375,83.5090909 93.05375,84.4163636 L96.512,91.6927273 C96.8219375,92.3454545 97.4708125,92.7272727 98.1486875,92.7272727 C98.4096875,92.7272727 98.6743125,92.6709091 98.9280625,92.5509091 C99.8306875,92.12 100.214937,91.0345455 99.7835625,90.1272727 Z" id="Shape" fill="#FF8282" fill-rule="nonzero"></path>
            <path d="M92.8670625,75.5727273 L86.8241875,62.8545455 C86.394625,61.9509091 85.3198125,61.5618182 84.408125,61.9963636 C83.5055,62.4272727 83.12125,63.5127273 83.552625,64.42 L89.5955,77.1381818 C89.9054375,77.7909091 90.5543125,78.1727273 91.2321875,78.1727273 C91.4931875,78.1727273 91.7578125,78.1163636 92.0115625,77.9963636 C92.9141875,77.5654545 93.2984375,76.48 92.8670625,75.5727273 Z" id="Shape" fill="#FF8282" fill-rule="nonzero"></path>
            <path d="M81.25075,81.3181818 L78.651625,72.2272727 C78.376125,71.2581818 77.36475,70.7054545 76.411375,70.98 C75.447125,71.2563636 74.8925,72.2636364 75.168,73.2272727 L77.767125,82.3181818 C77.9955,83.1181818 78.7186875,83.6363636 79.507125,83.6363636 C79.673875,83.6363636 79.8424375,83.6127273 80.007375,83.5654545 C80.971625,83.2890909 81.52625,82.2818182 81.25075,81.3181818 Z" id="Shape" fill="#FF8282" fill-rule="nonzero"></path>
            <path d="M27.357875,69.0909091 L15.1035625,69.0909091 C14.10125,69.0909091 13.2910625,69.9036364 13.2910625,70.9090909 C13.2910625,71.9145455 14.10125,72.7272727 15.1035625,72.7272727 L27.357875,72.7272727 C28.358375,72.7272727 29.170375,71.9145455 29.170375,70.9090909 C29.170375,69.9036364 28.3601875,69.0909091 27.357875,69.0909091 Z" id="Shape" fill="#FF8282" fill-rule="nonzero"></path>
            <path d="M109.353563,81.8181818 L94.69225,81.8181818 C93.6899375,81.8181818 92.87975,82.6309091 92.87975,83.6363636 C92.87975,84.6418182 93.6899375,85.4545455 94.69225,85.4545455 L109.353563,85.4545455 C110.355875,85.4545455 111.166063,84.6418182 111.166063,83.6363636 C111.166063,82.6309091 110.355875,81.8181818 109.353563,81.8181818 Z" id="Shape" fill="#FF8282" fill-rule="nonzero"></path>
            <path d="M104.521438,74.5454545 L91.2358125,74.5454545 C90.2335,74.5454545 89.4233125,75.3581818 89.4233125,76.3636364 C89.4233125,77.3690909 90.2335,78.1818182 91.2358125,78.1818182 L104.521438,78.1818182 C105.52375,78.1818182 106.333938,77.3690909 106.333938,76.3636364 C106.333938,75.3581818 105.52375,74.5454545 104.521438,74.5454545 Z" id="Shape" fill="#FF8282" fill-rule="nonzero"></path>
            <path d="M53.375,70.9090909 L39.088375,70.9090909 C38.0860625,70.9090909 37.275875,71.7218182 37.275875,72.7272727 C37.275875,73.7327273 38.0860625,74.5454545 39.088375,74.5454545 L53.375,74.5454545 C54.3773125,74.5454545 55.1875,73.7327273 55.1875,72.7272727 C55.1875,71.7218182 54.3773125,70.9090909 53.375,70.9090909 Z" id="Shape" fill="#FF8282" fill-rule="nonzero"></path>
            <path d="M76.911625,70.9090909 L61.7935625,70.9090909 C60.79125,70.9090909 59.9810625,71.7218182 59.9810625,72.7272727 C59.9810625,73.7327273 60.79125,74.5454545 61.7935625,74.5454545 L76.911625,74.5454545 C77.912125,74.5454545 78.724125,73.7327273 78.724125,72.7272727 C78.724125,71.7218182 77.9139375,70.9090909 76.911625,70.9090909 Z" id="Shape" fill="#FF8282" fill-rule="nonzero"></path>
            <path d="M79.5089375,80 L36.4910625,80 C35.48875,80 34.6785625,80.8127273 34.6785625,81.8181818 C34.6785625,82.8236364 35.48875,83.6363636 36.4910625,83.6363636 L79.5089375,83.6363636 C80.51125,83.6363636 81.3214375,82.8236364 81.3214375,81.8181818 C81.3214375,80.8127273 80.51125,80 79.5089375,80 Z" id="Shape" fill="#FF8282" fill-rule="nonzero"></path>
            <path d="M115.6955,89.9 L97.5705,62.6272727 C97.015875,61.7927273 95.892125,61.5654545 95.0565625,62.1236364 C94.2228125,62.6818182 93.9980625,63.8090909 94.5545,64.6454545 L110.80175,89.0909091 L5.19825,89.0909091 L21.4455,64.6472727 C22.0019375,63.8109091 21.7771875,62.6836364 20.9434375,62.1254545 C20.1060625,61.5672727 18.9823125,61.7945455 18.4295,62.6290909 L0.3045,89.9018182 C-0.06525,90.4581818 -0.1015,91.1763636 0.213875,91.7672727 C0.52925,92.3581818 1.1436875,92.7272727 1.8125,92.7272727 L114.1875,92.7272727 C114.856313,92.7272727 115.47075,92.3563636 115.786125,91.7654545 C116.1015,91.1745455 116.06525,90.4581818 115.6955,89.9 Z" id="Shape" fill="#7E7E7E" fill-rule="nonzero"></path>
            <path d="M114.1875,89.0909091 L1.8125,89.0909091 C0.8101875,89.0909091 0,89.9036364 0,90.9090909 L0,98.1818182 C0,99.1872727 0.8101875,100 1.8125,100 L114.1875,100 C115.189812,100 116,99.1872727 116,98.1818182 L116,90.9090909 C116,89.9036364 115.189812,89.0909091 114.1875,89.0909091 Z M112.375,96.3636364 L3.625,96.3636364 L3.625,92.7272727 L112.375,92.7272727 L112.375,96.3636364 Z" id="Shape" fill="#7E7E7E" fill-rule="nonzero"></path>
            <path d="M46.0864375,61.8181818 L19.9375,61.8181818 C18.9351875,61.8181818 18.125,62.6309091 18.125,63.6363636 C18.125,64.6418182 18.9351875,65.4545455 19.9375,65.4545455 L46.0864375,65.4545455 C47.0869375,65.4545455 47.8989375,64.6418182 47.8989375,63.6363636 C47.8989375,62.6309091 47.08875,61.8181818 46.0864375,61.8181818 Z" id="Shape" fill="#7E7E7E" fill-rule="nonzero"></path>
            <path d="M96.0625,61.8181818 L69.91175,61.8181818 C68.9094375,61.8181818 68.09925,62.6309091 68.09925,63.6363636 C68.09925,64.6418182 68.9094375,65.4545455 69.91175,65.4545455 L96.0625,65.4545455 C97.0648125,65.4545455 97.875,64.6418182 97.875,63.6363636 C97.875,62.6309091 97.0648125,61.8181818 96.0625,61.8181818 Z" id="Shape" fill="#7E7E7E" fill-rule="nonzero"></path>
            <path d="M58,0 C42.010125,0 29,13.0509091 29,29.0909091 C29,53.0163636 55.6709375,76.7327273 56.8055625,77.7309091 C57.1463125,78.0309091 57.5740625,78.1818182 58,78.1818182 C58.4259375,78.1818182 58.8536875,78.0309091 59.1944375,77.7309091 C60.3290625,76.7327273 87,53.0163636 87,29.0909091 C87,13.0509091 73.989875,0 58,0 Z M58,73.8927273 C52.8235,68.9890909 32.625,48.6072727 32.625,29.0909091 C32.625,15.0545455 44.0075,3.63636364 58,3.63636364 C71.9925,3.63636364 83.375,15.0545455 83.375,29.0909091 C83.375,48.6072727 63.1765,68.9909091 58,73.8927273 Z" id="Shape" fill="#FF8282" fill-rule="nonzero"></path>
            <path d="M58,41 C51.372583,41 46,35.627417 46,29 C46,22.372583 51.372583,17 58,17 C64.627417,17 70,22.372583 70,29 C70,35.627417 64.627417,41 58,41 Z M58,38 C62.9705627,38 67,33.9705627 67,29 C67,24.0294373 62.9705627,20 58,20 C53.0294373,20 49,24.0294373 49,29 C49,33.9705627 53.0294373,38 58,38 Z" id="Combined-Shape" fill="#E53C3C"></path>
        </g>
    </g>
</svg>