<svg id="Capa_1" data-name="Capa 1" xmlns="http://www.w3.org/2000/svg" viewBox="0 0 512 512"><defs><style>.cls-1{fill:#f9f9f9;}.cls-2{fill:#ff5a7a;}</style></defs><title>amenities</title><circle class="cls-1" cx="256" cy="256" r="256"/><path class="cls-2" d="M320.6,267.83c13.28-14,12.06-33.47,12.06-33.47a17.6,17.6,0,0,0,0-33.91V178.69a17.6,17.6,0,0,0,0-33.91s-2.08-49.19-47.14-49.19h-59c-45.05,0-47.14,49.19-47.14,49.19a17.6,17.6,0,0,0,0,33.91v21.76a17.6,17.6,0,0,0,0,33.91s-1.2,21.64,12.06,33.47c0,0-38.54-1.51-38.54,36.14v76.29A36.18,36.18,0,0,0,189,416.41H323a36.19,36.19,0,0,0,36.14-36.14V304C359.14,266.32,320.6,267.83,320.6,267.83Zm-16.09,53.81H207.74V277.23h96.77ZM270.64,348.1h15.17v3a4.68,4.68,0,0,1-4.67,4.67h-5.82a4.68,4.68,0,0,1-4.67-4.67v-3Zm15.17-9.4H270.64V331h15.17Zm-59.63,9.4h15.17v3a4.68,4.68,0,0,1-4.67,4.67h-5.82a4.68,4.68,0,0,1-4.67-4.67v-3Zm15.17-9.4H226.19V331h15.17Zm81.91-159.37v20.47H188.73V179.33Zm-147.44-17.6a8.21,8.21,0,0,1,8.2-8.2H287.9a4.7,4.7,0,1,0,0-9.4H188.73S190,105,226.48,105h59c35,0,37.75,39.14,37.75,39.14H306.48a4.7,4.7,0,0,0,0,9.4H328a8.2,8.2,0,0,1,0,16.4H184A8.21,8.21,0,0,1,175.83,161.73ZM188.73,235h57.78a4.7,4.7,0,1,0,0-9.4H184a8.2,8.2,0,0,1,0-16.4H328a8.2,8.2,0,0,1,0,16.4H265.52a4.7,4.7,0,0,0,0,9.4h57.75s.41,22-16.74,32.83H205.65C187.84,258.32,188.73,235,188.73,235ZM162.25,380.27V304A26.78,26.78,0,0,1,189,277.23h9.34V391.87a4.7,4.7,0,1,0,9.4,0V331h9v20a14.09,14.09,0,0,0,14.07,14.07h5.82a14.09,14.09,0,0,0,14.07-14.07V331h10.49v20a14.09,14.09,0,0,0,14.07,14.07h5.82a14.09,14.09,0,0,0,14.07-14.07V331h9.3v76H189A26.77,26.77,0,0,1,162.25,380.27Zm187.49,0A26.78,26.78,0,0,1,323,407h-9.09V277.23H323A26.77,26.77,0,0,1,349.75,304Z"/></svg>