<svg id="Capa_1" data-name="Capa 1" xmlns="http://www.w3.org/2000/svg" viewBox="0 0 512 512"><defs><style>.cls-1{fill:#f9f9f9;}.cls-2{fill:#ff5a7a;}</style></defs><title>amenities</title><circle class="cls-1" cx="256" cy="256" r="256"/><path class="cls-2" d="M381.54,230.74H339.69v-10.8a5.1,5.1,0,0,0-5.1-5.1H224.36a5.1,5.1,0,1,0,0,10.21H329.49v39.12a97.23,97.23,0,0,1-48,83.69h-98a97.23,97.23,0,0,1-48-83.69V225h34.19a5.1,5.1,0,1,0,0-10.21h-39.3a5.1,5.1,0,0,0-5.1,5.1v44.23a107,107,0,0,0,40.25,83.69H130.46a5.1,5.1,0,0,0-5.1,5.1A33.72,33.72,0,0,0,159,386.64H318.26A33.72,33.72,0,0,0,351.94,353a5.1,5.1,0,0,0-5.1-5.1H299.45a107.79,107.79,0,0,0,23.63-26.37h14.41a49.22,49.22,0,0,0,49.16-49.16V235.84A5.1,5.1,0,0,0,381.54,230.74Zm-63.28,145.7H159a23.52,23.52,0,0,1-22.92-18.37H341.18A23.52,23.52,0,0,1,318.26,376.44Zm21.43-115.08H356v11a18.56,18.56,0,0,1-18.54,18.54h-1.16a107.43,107.43,0,0,0,3.37-26.71Zm36.74,11a39,39,0,0,1-39,39H328.8a106.55,106.55,0,0,0,4.36-10.21h4.33a28.78,28.78,0,0,0,28.75-28.75V256.26a5.1,5.1,0,0,0-5.1-5.1H339.69V240.95h36.74Z"/><path class="cls-2" d="M229.41,160a17.38,17.38,0,0,1,0,21.74l-2.72,3.43a5.1,5.1,0,1,0,8,6.34l2.72-3.43a27.55,27.55,0,0,0,0-34.44l-2.66-3.33a13.3,13.3,0,0,1,0-16.63,5.1,5.1,0,0,0-8-6.34,23.46,23.46,0,0,0,0,29.34Z"/><path class="cls-2" d="M257.7,171.43a17.39,17.39,0,0,1,0,21.74L255,196.6a5.1,5.1,0,1,0,8,6.34l2.72-3.43a27.55,27.55,0,0,0,0-34.44L263,161.74a13.3,13.3,0,0,1,0-16.63,5.1,5.1,0,0,0-8-6.34,23.46,23.46,0,0,0,0,29.34Z"/><path class="cls-2" d="M201.13,171.43a17.39,17.39,0,0,1,0,21.74l-2.72,3.43a5.1,5.1,0,1,0,8,6.35l2.72-3.43a27.55,27.55,0,0,0,0-34.44l-2.66-3.33a13.3,13.3,0,0,1,0-16.63,5.1,5.1,0,1,0-8-6.35,23.47,23.47,0,0,0,0,29.34Z"/><path class="cls-2" d="M198.44,214.83a5.11,5.11,0,1,0,3.61,1.5A5.14,5.14,0,0,0,198.44,214.83Z"/><path class="cls-2" d="M291.16,322.43a83.4,83.4,0,0,0,24-58.26,5.1,5.1,0,1,0-10.21,0,73.12,73.12,0,0,1-21.08,51.08,5.1,5.1,0,1,0,7.25,7.18Z"/><path class="cls-2" d="M270.78,336.77a5.08,5.08,0,0,0,2.5-.66l.12-.07a5.1,5.1,0,0,0-5-8.89l-.12.07a5.1,5.1,0,0,0,2.51,9.55Z"/></svg>