<svg id="Capa_1" data-name="Capa 1" xmlns="http://www.w3.org/2000/svg" viewBox="0 0 512 512"><defs><style>.cls-1{fill:#f9f9f9;}.cls-2{fill:#ff5a7a;}</style></defs><title>amenities</title><circle class="cls-1" cx="256" cy="256" r="256"/><path class="cls-2" d="M297.42,131.74H168.56a13.82,13.82,0,0,0-13.81,13.81v220.9a13.82,13.82,0,0,0,13.81,13.81H297.42a13.82,13.82,0,0,0,13.81-13.81V145.55A13.82,13.82,0,0,0,297.42,131.74Zm-128.86,9.2H297.42a4.61,4.61,0,0,1,4.6,4.6v73.63h-9.2v9.2H302V302H279V256h-4.6V237.59H246.8V256h-4.6v46h-8.38l3.71-22.26.06-10a23,23,0,0,0-46,0V279l3.79,23H164V228.39H283.61v-9.2H164V145.55A4.61,4.61,0,0,1,168.56,140.95ZM251.4,265.2h18.41V302H251.4ZM265.2,256H256v-9.2h9.2Zm-64.36,23h27.49l-3.83,23H204.68Zm-.06-9.2a13.81,13.81,0,0,1,27.61,0Zm96.64,101.24H168.56a4.61,4.61,0,0,1-4.6-4.6V311.22H302v55.22A4.61,4.61,0,0,1,297.42,371.05Z"/><path class="cls-2" d="M200.78,348H265.2V320.43H200.78Zm9.2-18.41h46v9.2H210Z"/><rect class="cls-2" x="173.16" y="150.15" width="36.82" height="9.2"/><path class="cls-2" d="M375.65,202.53l-18.41-9.2V131.74a18.4,18.4,0,0,0-35.38-7.11,32.14,32.14,0,0,0-24.45-11.29H168.56a32.25,32.25,0,0,0-32.21,32.21v220.9a32.25,32.25,0,0,0,32.21,32.21H297.42a32.14,32.14,0,0,0,24.45-11.29,18.4,18.4,0,0,0,35.38-7.11V272.65l18.41-9.2ZM348,380.26a9.2,9.2,0,1,1-18.41,0v-23h-9.2v9.2a23,23,0,0,1-23,23H168.56a23,23,0,0,1-23-23V145.55a23,23,0,0,1,23-23H297.42a23,23,0,0,1,23,23V348h9.2V131.74a9.2,9.2,0,1,1,18.41,0Zm18.41-122.5-9.2,4.6V203.62l9.2,4.6Z"/></svg>