<svg id="Capa_1" data-name="Capa 1" xmlns="http://www.w3.org/2000/svg" viewBox="0 0 512 512"><defs><style>.cls-1{fill:#f9f9f9;}.cls-2{fill:#ff5a7a;}</style></defs><title>amenities</title><circle class="cls-1" cx="256" cy="256" r="256"/><path class="cls-2" d="M380.92,172.07H326.63V141.43a6.17,6.17,0,0,0-6.17-6.17H191.54a6.17,6.17,0,0,0-6.17,6.17v30.64H131.08a20.51,20.51,0,0,0-20.48,20.48v98.17a20.51,20.51,0,0,0,20.48,20.48h54.29v59.36a6.17,6.17,0,0,0,6.17,6.17H320.46a6.17,6.17,0,0,0,6.17-6.17V311.21h54.29a20.51,20.51,0,0,0,20.48-20.48V192.56A20.51,20.51,0,0,0,380.92,172.07ZM341.33,184.4v17.26H326.63V184.4Zm-27-36.8v54.06H197.71V147.6ZM185.37,201.66H170.66V184.4h14.71ZM314.29,364.4H197.71V283.19H314.29Zm74.77-73.68a8.16,8.16,0,0,1-8.15,8.15H326.63V283.19h11.25a6.17,6.17,0,0,0,0-12.33H174.12a6.17,6.17,0,0,0,0,12.33h11.25v15.68H131.08a8.16,8.16,0,0,1-8.15-8.15V192.56a8.16,8.16,0,0,1,8.15-8.15h27.25v23.42A6.17,6.17,0,0,0,164.5,214h183a6.17,6.17,0,0,0,6.17-6.17V184.4h27.25a8.16,8.16,0,0,1,8.15,8.15v98.17Z"/><circle class="cls-2" cx="149.68" cy="235.13" r="7.73"/><path class="cls-2" d="M225.43,342.43h28.78a6.17,6.17,0,1,0,0-12.33H225.43a6.17,6.17,0,1,0,0,12.33Z"/><path class="cls-2" d="M225.43,311.2h61.15a6.17,6.17,0,1,0,0-12.33H225.43a6.17,6.17,0,1,0,0,12.33Z"/></svg>