<svg id="Layer_1" data-name="Layer 1" xmlns="http://www.w3.org/2000/svg" viewBox="0 0 409.86 403.48"><defs><style>.cls-1{fill:#f26444;}.cls-2{fill:#375d96;}</style></defs><title>location</title><path class="cls-1" d="M468.16,258.79H387a7.44,7.44,0,1,0,0,14.87h67.8l21.57,201.17H99.94L125.3,273.66h68a7.44,7.44,0,1,0,0-14.87H112.17l-29.1,231H492.93Zm0,0" transform="translate(-83.07 -86.26)"/><path class="cls-2" d="M292.58,376.33c.07-.07,8.58-7.16,8.62-7.23,13.49-14.26,59.15-67.3,78-156.43,3.82-18,4.69-35.39,2.54-51.54-6.4-49-36.81-74.86-88-74.86s-81.6,25.9-88,74.86c-2.11,16.16-1.28,33.51,2.54,51.54C226.89,301,271.6,354.22,285.53,369.09h0m-65-206c5.46-41.65,29.43-61.91,73.22-61.91s67.77,20.26,73.22,61.91c1.93,14.44,1.14,30.13-2.33,46.53-16.91,80.11-57.22,131-70.9,146.38-13.68-15.46-54-66.31-70.86-146.38-3.45-16.4-4.26-32.08-2.37-46.53Zm0,0" transform="translate(-83.07 -86.26)"/><path class="cls-2" d="M293.71,227.22A54.71,54.71,0,1,0,239,172.51a54.77,54.77,0,0,0,54.71,54.71Zm0-94.54a39.83,39.83,0,1,1-39.83,39.83,39.87,39.87,0,0,1,39.83-39.83Zm0,0" transform="translate(-83.07 -86.26)"/><path class="cls-1" d="M317.19,364.24a7.46,7.46,0,0,0,3.13,14.58c4.36-.94,9.09-1.7,14-2.33a7.46,7.46,0,0,0-1.82-14.81c-5.38.7-10.55,1.53-15.35,2.55Zm0,0" transform="translate(-83.07 -86.26)"/><path class="cls-1" d="M355.71,367.26a7.48,7.48,0,0,0,7.46,7.13h.33l14.92-.62a7.45,7.45,0,0,0,7.1-7.79,7.65,7.65,0,0,0-7.79-7.09l-14.88.61a7.48,7.48,0,0,0-7.13,7.75Zm0,0" transform="translate(-83.07 -86.26)"/><path class="cls-1" d="M250.18,401.57c-3.82,2.87-7.79,5.63-11.74,8.21a7.51,7.51,0,0,0-2.23,10.34,7.5,7.5,0,0,0,10.34,2.18c4.26-2.77,8.51-5.75,12.62-8.84a7.45,7.45,0,0,0-9-11.89Zm0,0" transform="translate(-83.07 -86.26)"/><path class="cls-1" d="M288.27,374c-4.15,2.36-8.43,4.61-12.69,6.67a7.51,7.51,0,0,0-3.51,10,7.5,7.5,0,0,0,10,3.47c4.57-2.21,9.17-4.63,13.63-7.18A7.45,7.45,0,0,0,288.27,374Zm0,0" transform="translate(-83.07 -86.26)"/><path class="cls-1" d="M416.24,352.42a26.35,26.35,0,0,1-10,3.93,7.44,7.44,0,0,0,1.49,14.73,7.64,7.64,0,0,0,1.53-.14,40.91,40.91,0,0,0,15.61-6.37l1-.73a7.45,7.45,0,0,0-9-11.86Zm0,0" transform="translate(-83.07 -86.26)"/><path class="cls-1" d="M149.09,410.7a7.46,7.46,0,1,0-14.41-3.89A49.56,49.56,0,0,0,133,417.24c0,.88,0,1.75,0,2.65,0,1.46.07,2.91.19,4.37a7.49,7.49,0,0,0,7.42,6.7c.25,0,.5,0,.76,0a7.45,7.45,0,0,0,6.66-8.19,25.75,25.75,0,0,1-.15-2.91c0-.62,0-1.24.07-1.86a34.11,34.11,0,0,1,1.16-7.27Zm0,0" transform="translate(-83.07 -86.26)"/><path class="cls-1" d="M416.07,294.51a44.5,44.5,0,0,0-17.79,1.34,7.45,7.45,0,0,0,2,14.62,6.39,6.39,0,0,0,2-.29,29.29,29.29,0,0,1,11.72-.91,7.45,7.45,0,1,0,2-14.76Zm0,0" transform="translate(-83.07 -86.26)"/><path class="cls-1" d="M430.91,331.43a7.44,7.44,0,1,0,14.22,4.4,30.83,30.83,0,0,0,1.34-7.2c0-.62.07-1.24.07-1.86a30.1,30.1,0,0,0-1.89-10.36,7.45,7.45,0,1,0-14,5.21,15.05,15.05,0,0,1,1,5.16v.88a18.26,18.26,0,0,1-.73,3.78Zm0,0" transform="translate(-83.07 -86.26)"/><path class="cls-1" d="M213.3,423.79c-4.36,2.08-8.8,4-13.21,5.68a7.46,7.46,0,0,0,2.69,14.41,7.72,7.72,0,0,0,2.66-.51c4.76-1.82,9.53-3.86,14.18-6.07a7.46,7.46,0,0,0-6.33-13.5Zm0,0" transform="translate(-83.07 -86.26)"/><path class="cls-1" d="M159.06,392.8a7.46,7.46,0,0,0,3.57-.9,18.31,18.31,0,0,1,6.8-2.15,10.31,10.31,0,0,1,3,0,7.39,7.39,0,0,0,8.36-6.4,7.51,7.51,0,0,0-6.43-8.37,29.24,29.24,0,0,0-6.62-.07,33.06,33.06,0,0,0-12.26,3.89,7.46,7.46,0,0,0,3.57,14Zm0,0" transform="translate(-83.07 -86.26)"/><path class="cls-1" d="M157.53,451.22a36.35,36.35,0,0,0,4.88.9,48.45,48.45,0,0,0,5.71.36,57.9,57.9,0,0,0,7-.47,7.45,7.45,0,0,0-1.89-14.77,37.8,37.8,0,0,1-9.06.1,25.2,25.2,0,0,1-2.91-.58,7.46,7.46,0,0,0-3.74,14.44Zm0,0" transform="translate(-83.07 -86.26)"/></svg>