<svg xmlns="http://www.w3.org/2000/svg" xmlns:xlink="http://www.w3.org/1999/xlink" viewBox="0 0 1223.51 1032"><defs><style>.cls-1{fill:url(#linear-gradient);}.cls-2{fill:url(#linear-gradient-2);}.cls-3{fill:url(#linear-gradient-3);}.cls-4{fill:#d64541;}</style><linearGradient id="linear-gradient" x1="279.23" y1="-66.68" x2="937.76" y2="857.53" gradientUnits="userSpaceOnUse"><stop offset="0" stop-color="#d64541"/><stop offset="0.53" stop-color="#d4433f"/><stop offset="0.79" stop-color="#cc3c3a"/><stop offset="1" stop-color="#bf3030"/></linearGradient><linearGradient id="linear-gradient-2" x1="232.6" y1="-4.72" x2="914.17" y2="660.68" gradientUnits="userSpaceOnUse"><stop offset="0" stop-color="#fff"/><stop offset="1" stop-color="#c9c9c9"/></linearGradient><linearGradient id="linear-gradient-3" x1="215.32" y1="12.98" x2="896.89" y2="678.37" xlink:href="#linear-gradient-2"/></defs><title>Logo_full color</title><g id="Layer_2" data-name="Layer 2"><g id="Layer_1-2" data-name="Layer 1"><circle class="cls-1" cx="611.75" cy="400" r="400"/><path class="cls-2" d="M512.75,178a127.26,127.26,0,0,0-26.9,37.9,109.93,109.93,0,0,0-9.41,45.18s-.29,51.39-.49,55.86c-.85,19.43-4.63,28.06-16.2,42.06-15.31,18.53-48,16-48,16v50s32.69-2.53,48,16c11.57,14,15.35,22.64,16.2,42.06.19,4.47.49,55.86.49,55.86a109.93,109.93,0,0,0,9.41,45.18,127.26,127.26,0,0,0,26.9,37.9c10.79,10.44,44,33,84.75,33H747.75V605h-146c-47,0-65-31-69.33-39.93a59.17,59.17,0,0,1-5.66-26V496.93c0-21.79-4.16-41.87-12.36-59.68h0C501.75,409,490.75,400,490.75,400s11-9,23.66-37.23h0c8.2-17.81,12.36-37.89,12.36-59.68V260.94a59.17,59.17,0,0,1,5.66-26C536.75,226,554.75,195,601.75,195h146V145H597.5C556.75,145,523.55,167.56,512.75,178Z"/><path class="cls-3" d="M611.75,30c-204.35,0-370,165.65-370,370s165.65,370,370,370,370-165.65,370-370S816.1,30,611.75,30Zm0,720c-193.3,0-350-156.7-350-350s156.7-350,350-350,350,156.7,350,350S805.05,750,611.75,750Z"/><path class="cls-4" d="M224.06,923a54.5,54.5,0,1,0,38.48,93,54.5,54.5,0,0,0-38.48-93Zm27.27,81.83a38.69,38.69,0,0,1-66-27.38,38.78,38.78,0,0,1,38.69-38.58,38.65,38.65,0,0,1,27.27,66Z"/><path class="cls-4" d="M387.5,938.6v.33a54.5,54.5,0,1,0,0,77.14V1032h16V870h-16Zm0,42.32a38.53,38.53,0,1,1,0-6.93Z"/><path class="cls-4" d="M474.06,923a54.5,54.5,0,0,0,0,109,53.28,53.28,0,0,0,29-8.39,54.26,54.26,0,0,0,19.7-21.89l-14.62-6.33a37,37,0,0,1-13.89,14.93,37.6,37.6,0,0,1-20.23,5.81,37,37,0,0,1-26.13-10.26,37.39,37.39,0,0,1-12.35-25.1h92.83l.1-3.32A54.52,54.52,0,0,0,474.06,923Zm-36.5,41.9a38.19,38.19,0,0,1,13.89-18.66,38.49,38.49,0,0,1,59,18.66Z"/><path class="cls-4" d="M560.51,933.11V923h-16v109h16V967a28.16,28.16,0,0,1,28-28h2V923h-2A42.65,42.65,0,0,0,560.51,933.11Z"/><path class="cls-4" d="M788.91,938.84a38.26,38.26,0,0,1,34,20.64l14.58-6.33a54.36,54.36,0,0,0-19.65-21.78,54.5,54.5,0,1,0,0,92.2,54.17,54.17,0,0,0,19.65-21.89l-14.58-6.33a36.94,36.94,0,0,1-13.86,14.93,37.38,37.38,0,0,1-20.16,5.81,37,37,0,0,1-27.2-11.31,38.63,38.63,0,0,1,27.2-66Z"/><path class="cls-4" d="M897.51,923a42.69,42.69,0,0,0-27.91,10V870H853.51v162H869.6V965.79a26.68,26.68,0,0,1,8.05-18.58,28.06,28.06,0,0,1,39.72,0,26.78,26.78,0,0,1,8.15,19.69V1032h16V966.91a43.83,43.83,0,0,0-44-43.88Z"/><polygon class="cls-4" points="1207.51 870 1207.51 875.32 1207.51 1030.43 1207.51 1032 1223.51 1032 1223.51 965.11 1223.51 932.37 1223.51 870 1207.51 870"/><path class="cls-4" d="M668.53,942.51q-44.47-2.94-44.47-25.48,0-15.78,14-24a42.1,42.1,0,0,1,12.28-4.68A48.21,48.21,0,0,1,661.75,887a41,41,0,0,1,31.12,13.39,37.52,37.52,0,0,1,6,7.57q1.94,3.43,3.34,6.48l15.72-6q-1.94-4.35-3.23-6.64a72.6,72.6,0,0,0-9.58-13.17Q687.7,870,661.75,870q-22,0-37.36,12Q607.26,895.15,607.26,917q0,16.22,11.41,26.56,15.07,13.61,48.67,15.9,20,1.31,29.07,12a21,21,0,0,1,5.17,15.68Q700.3,1004,685.22,1011a42.8,42.8,0,0,1-11.52,3.37,32.39,32.39,0,0,1-3.88.54q-1.62.11-3.88.11a50.79,50.79,0,0,1-25.73-6.42,36.26,36.26,0,0,1-17.55-22.21l-16.15,4.79a52.59,52.59,0,0,0,24.77,31.68,66.76,66.76,0,0,0,34.57,9.14h.22q20,0,34.35-10.45,16.26-11.87,18-33.1a37.37,37.37,0,0,0-9.26-28.09Q695.45,944.36,668.53,942.51Z"/><path class="cls-4" d="M1012,923a54.52,54.52,0,1,0,38.48,16A52.57,52.57,0,0,0,1012,923Zm27.27,81.83a38.68,38.68,0,1,1,11.3-27.38A37.14,37.14,0,0,1,1039.29,1004.83Z"/><path class="cls-4" d="M1137.06,923a54.52,54.52,0,1,0,38.48,16A52.57,52.57,0,0,0,1137.06,923Zm27.27,81.83a38.68,38.68,0,1,1,11.3-27.38A37.14,37.14,0,0,1,1164.34,1004.83Z"/><path class="cls-4" d="M81,1015a62.67,62.67,0,0,0,33.64-9.58,63.81,63.81,0,0,0,23.19-24.93l15.68,6.75a80.44,80.44,0,0,1-29.4,32.33A79.33,79.33,0,0,1,81,1032,81.18,81.18,0,0,1,6.31,919.41,82,82,0,0,1,49.54,876.3,80.41,80.41,0,0,1,81,870a79.33,79.33,0,0,1,43.11,12.41,80.44,80.44,0,0,1,29.4,32.34l-15.68,6.75A64.22,64.22,0,0,0,81,887q-26.46,0-45.29,18.73T17,951q0,26.46,18.73,45.29T81,1015Z"/></g></g></svg>