<?xml version="1.0" encoding="UTF-8"?>
<svg width="100px" height="100px" viewBox="0 0 100 100" version="1.1" xmlns="http://www.w3.org/2000/svg" xmlns:xlink="http://www.w3.org/1999/xlink">
    <!-- Generator: Sketch 50.2 (55047) - http://www.bohemiancoding.com/sketch -->
    <title>message</title>
    <desc>Created with Sketch.</desc>
    <defs></defs>
    <g id="Page-1" stroke="none" stroke-width="1" fill="none" fill-rule="evenodd">
        <g id="message" fill-rule="nonzero">
            <path d="M77.6619883,8.32324219 C76.2298246,7.37148437 74.7360624,6.48496094 73.2224172,5.68984375 C72.4089669,5.26308594 71.4042885,5.5765625 70.9768031,6.39160156 C70.5508772,7.20664062 70.8653021,8.21484375 71.6787524,8.64160156 C73.0925926,9.38496094 74.4865497,10.2115234 75.8224172,11.1 C76.1052632,11.2882813 76.4245614,11.3783203 76.7405458,11.3783203 C77.2777778,11.3783203 77.8068226,11.1166016 78.1278752,10.6333984 C78.6350877,9.86660156 78.4270955,8.83164062 77.6619883,8.32324219 Z" id="Shape" fill="#7E7E7E"></path>
            <path d="M64.3296296,2.06660156 C61.2672515,1.15488281 58.0968811,0.536523437 54.9064327,0.229882812 C53.9949318,0.148242187 53.1781676,0.81484375 53.0916179,1.72988281 C53.0035088,2.64492187 53.6738791,3.45996094 54.588694,3.54824219 C57.5662768,3.83496094 60.5253411,4.41152344 63.3814815,5.26152344 C63.5395712,5.30820312 63.6992203,5.33144531 63.8555556,5.33144531 C64.5707602,5.33144531 65.2329435,4.86152344 65.4506823,4.13984375 C65.7118908,3.25664062 65.2095517,2.32832031 64.3296296,2.06660156 Z" id="Shape" fill="#7E7E7E"></path>
            <path d="M45.308577,0.228320312 C42.1181287,0.533398437 38.9477583,1.15 35.8836257,2.06171875 C35.0037037,2.3234375 34.5013645,3.25175781 34.7625731,4.13339844 C34.977193,4.85839844 35.6391813,5.32675781 36.3561404,5.32675781 C36.5124756,5.32675781 36.6721248,5.30351562 36.8319688,5.25683594 C39.6896686,4.40683594 42.6473684,3.83007812 45.6247563,3.546875 C46.5380117,3.46015625 47.2083821,2.646875 47.1218324,1.73027344 C47.0352827,0.813671875 46.2233918,0.143359375 45.308577,0.228320312 Z" id="Shape" fill="#7E7E7E"></path>
            <path d="M29.2183236,6.39160156 C28.7923977,5.5765625 27.7861598,5.26328125 26.9727096,5.68984375 C25.4590643,6.48476562 23.9653021,7.37148437 22.5329435,8.32324219 C21.7678363,8.83164062 21.5582846,9.86660156 22.0672515,10.6332031 C22.3865497,11.1166016 22.9155945,11.378125 23.4545809,11.378125 C23.7705653,11.378125 24.0900585,11.2880859 24.3727096,11.0998047 C25.7083821,10.2097656 27.1040936,9.38320312 28.5163743,8.64140625 C29.331384,8.21503906 29.6440546,7.20664062 29.2183236,6.39160156 Z" id="Shape" fill="#7E7E7E"></path>
            <path d="M94.5356725,68.8933594 C93.7038986,68.5017578 92.71423,68.8650391 92.3249513,69.6984375 C91.6495127,71.1484375 90.8894737,72.5818359 90.0660819,73.9583984 C89.5953216,74.7484375 89.8499025,75.7716797 90.6382066,76.2451172 C90.9060429,76.4068359 91.2003899,76.4833984 91.4916179,76.4833984 C92.057115,76.4833984 92.6093567,76.1933594 92.917154,75.6734375 C93.8003899,74.1984375 94.6155945,72.6634766 95.3391813,71.1083984 C95.7282651,70.275 95.3674464,69.2833984 94.5356725,68.8933594 Z" id="Shape" fill="#7E7E7E"></path>
            <path d="M99.7738791,45.2316406 C99.6873294,44.3150391 98.8789474,43.6515625 97.9608187,43.7298828 C97.0460039,43.8166016 96.3756335,44.6298828 96.4619883,45.5464844 C96.6033138,47.0181641 96.6732943,48.5164062 96.6732943,49.9998047 C96.6732943,52.6498047 96.4487329,55.3082031 96.0079922,57.9015625 C95.8549708,58.8082031 96.4637427,59.6699219 97.368616,59.8248047 C97.4617934,59.8414062 97.5565302,59.8480469 97.6497076,59.8480469 C98.4448343,59.8480469 99.148538,59.2748047 99.2865497,58.4630859 C99.7604288,55.6849609 100,52.8382812 100,50 C100,48.4117187 99.9233918,46.8066406 99.7738791,45.2316406 Z" id="Shape" fill="#7E7E7E"></path>
            <path d="M96.7795322,32.3183594 C96.1740741,30.7166016 95.4754386,29.1234375 94.7035088,27.5849609 C94.2892788,26.7632813 93.2896686,26.4298828 92.4695906,26.8449219 C91.6479532,27.2582031 91.3167641,28.2599609 91.7294347,29.0832031 C92.4497076,30.5181641 93.1017544,32.0048828 93.6672515,33.4998047 C93.9185185,34.1648438 94.5504873,34.5765625 95.2226121,34.5765625 C95.4189084,34.5765625 95.6167641,34.5416016 95.8130604,34.4681641 C96.6730994,34.1416016 97.105653,33.1800781 96.7795322,32.3183594 Z" id="Shape" fill="#7E7E7E"></path>
            <path d="M7.72690058,26.8449219 C6.90526316,26.4298828 5.90545809,26.7632813 5.49298246,27.5849609 C4.72124756,29.1232422 4.02261209,30.7166016 3.41695906,32.3183594 C3.09083821,33.1800781 3.52339181,34.1417969 4.3834308,34.4683594 C4.57797271,34.5416016 4.77602339,34.5767578 4.97231969,34.5767578 C5.64424951,34.5767578 6.27641326,34.1650391 6.52923977,33.5 C7.09473684,32.0050781 7.74678363,30.5183594 8.46705653,29.0833984 C8.8797271,28.2599609 8.54697856,27.2583984 7.72690058,26.8449219 Z" id="Shape" fill="#7E7E7E"></path>
            <path d="M4.18538012,57.8900391 C3.74463938,55.3017578 3.52163743,52.6466797 3.52163743,50 C3.52163743,48.5099609 3.59317739,47.0083984 3.73118908,45.5382812 C3.81929825,44.6216797 3.14892788,43.8082031 2.23411306,43.7199219 C1.32748538,43.6416016 0.507407407,44.3033203 0.421052632,45.2199219 C0.271539961,46.7966797 0.194931774,48.4033203 0.194931774,50 C0.194931774,52.8349609 0.434502924,55.6767578 0.905263158,58.45 C1.04502924,59.2632812 1.74697856,59.8367187 2.54366472,59.8367187 C2.63684211,59.8367187 2.73157895,59.8300781 2.82475634,59.8132812 C3.73138402,59.6583984 4.34015595,58.7966797 4.18538012,57.8900391 Z" id="Shape" fill="#7E7E7E"></path>
            <path d="M10.1255361,73.9583984 C9.30214425,72.5816406 8.54191033,71.1484375 7.86666667,69.6984375 C7.47738791,68.8650391 6.4877193,68.5017578 5.65594542,68.8933594 C4.82417154,69.2833984 4.46491228,70.275 4.85243665,71.1083984 C5.57777778,72.6634766 6.39103314,74.1984375 7.27446394,75.6734375 C7.5871345,76.1951172 8.13781676,76.4833984 8.70331384,76.4833984 C8.99434698,76.4833984 9.28888889,76.4066406 9.55341131,76.2451172 C10.3417154,75.7716797 10.5978558,74.7482422 10.1255361,73.9583984 Z" id="Shape" fill="#7E7E7E"></path>
            <path d="M33.6278752,93.6550781 C32.1374269,93.0884766 30.6553606,92.4367187 29.219883,91.7134766 C28.3998051,91.3017578 27.3984405,91.6318359 26.9859649,92.4535156 C26.5734893,93.2767578 26.9044834,94.2785156 27.7261209,94.6917969 C29.2631579,95.4667969 30.8534113,96.1667969 32.4502924,96.771875 C32.6448343,96.8451172 32.842885,96.8802734 33.0391813,96.8802734 C33.711306,96.8802734 34.3432749,96.4685547 34.5945419,95.8035156 C34.9204678,94.9416016 34.4879142,93.9800781 33.6278752,93.6550781 Z" id="Shape" fill="#7E7E7E"></path>
            <path d="M57.5296296,97.7916016 C57.419883,96.8783203 56.5964912,96.225 55.679922,96.3349609 C51.997076,96.7765625 48.1861598,96.7765625 44.488499,96.3316406 C43.5736842,96.2216797 42.748538,96.8732422 42.6387914,97.7867188 C42.5306043,98.7 43.1810916,99.5300781 44.0925926,99.6400391 C46.0752437,99.8783203 48.0947368,100 50.0974659,100 C52.0953216,100 54.1079922,99.8800781 56.0758285,99.6449219 C56.9890838,99.5349609 57.6393762,98.7050781 57.5296296,97.7916016 Z" id="Shape" fill="#7E7E7E"></path>
            <path d="M73.2074074,92.4533203 C72.7931774,91.6316406 71.7935673,91.2982422 70.9734893,91.7132812 C69.5395712,92.4365234 68.0559454,93.0900391 66.5654971,93.6548828 C65.7072125,93.9798828 65.2730994,94.9416016 65.5990253,95.803125 C65.8518519,96.4681641 66.4840156,96.8798828 67.1559454,96.8798828 C67.3522417,96.8798828 67.5500975,96.8449219 67.7430799,96.7714844 C69.339961,96.1648437 70.9302144,95.4648437 72.4672515,94.6914062 C73.2888889,94.2783203 73.619883,93.2767578 73.2074074,92.4533203 Z" id="Shape" fill="#7E7E7E"></path>
            <path d="M15.165692,0 C9.66315789,0 5.18518519,4.48496094 5.18518519,10 C5.18518519,15.5150391 9.66315789,20 15.165692,20 C20.6682261,20 25.1461988,15.5150391 25.1461988,10 C25.1461988,4.48496094 20.6682261,0 15.165692,0 Z M15.165692,16.6666016 C11.4961014,16.6666016 8.51208577,13.6765625 8.51208577,10 C8.51208577,6.3234375 11.4961014,3.33339844 15.165692,3.33339844 C18.8352827,3.33339844 21.8192982,6.3234375 21.8192982,10 C21.8192982,13.6765625 18.8352827,16.6666016 15.165692,16.6666016 Z" id="Shape" fill="#FF8282"></path>
            <path d="M21.8226121,13.3333984 L21.7810916,13.3333984 C21.2604288,13.3333984 20.7680312,13.5783203 20.4536062,13.9951172 C19.1744639,15.6933594 17.2465887,16.6666016 15.165692,16.6666016 C13.0847953,16.6666016 11.1569201,15.6933594 9.87777778,13.9949219 C9.56335283,13.5783203 9.0294347,13.3332031 8.50877193,13.3332031 C3.92436647,13.3333984 0.194931774,17.0699219 0.194931774,21.6632812 L0.194931774,28.3332031 C0.194931774,29.253125 0.940155945,29.9998047 1.8582846,29.9998047 L28.4729045,29.9998047 C29.3910331,29.9998047 30.1362573,29.253125 30.1362573,28.3332031 L30.1362573,21.6632812 C30.1364522,17.0699219 26.4070175,13.3333984 21.8226121,13.3333984 Z M26.8095517,26.6666016 L3.52183236,26.6666016 L3.52183236,21.6632812 C3.52183236,19.1548828 5.3748538,17.0732422 7.81345029,16.7199219 C9.70643275,18.8150391 12.3395712,20 15.165692,20 C17.9935673,20 20.6282651,18.8132813 22.5212476,16.7150391 C24.9415205,17.0566406 26.8095517,19.1466797 26.8095517,21.6632812 L26.8095517,26.6666016 Z" id="Shape" fill="#FF8282"></path>
            <path d="M85.0292398,0 C79.5267057,0 75.0487329,4.48496094 75.0487329,10 C75.0487329,15.5150391 79.5267057,20 85.0292398,20 C90.5317739,20 95.0097466,15.5150391 95.0097466,10 C95.0097466,4.48496094 90.5317739,0 85.0292398,0 Z M85.0292398,16.6666016 C81.3596491,16.6666016 78.3756335,13.6765625 78.3756335,10 C78.3756335,6.3234375 81.3598441,3.33339844 85.0292398,3.33339844 C88.6988304,3.33339844 91.682846,6.3234375 91.682846,10 C91.682846,13.6765625 88.6988304,16.6666016 85.0292398,16.6666016 Z" id="Shape" fill="#FF8282"></path>
            <path d="M91.6861598,13.3333984 L91.6446394,13.3333984 C91.1239766,13.3333984 90.6315789,13.5783203 90.317154,13.9951172 C89.0380117,15.6933594 87.1101365,16.6667969 85.0290448,16.6667969 C82.9481481,16.6667969 81.0202729,15.6935547 79.7411306,13.9951172 C79.4267057,13.5785156 78.8927875,13.3333984 78.3721248,13.3333984 C73.7877193,13.3333984 70.0582846,17.0701172 70.0582846,21.6634766 L70.0582846,28.3333984 C70.0582846,29.2533203 70.8035088,30 71.7216374,30 L98.3362573,30 C99.254386,30 99.9996101,29.2533203 99.9996101,28.3333984 L99.9996101,21.6634766 C100,17.0699219 96.2705653,13.3333984 91.6861598,13.3333984 Z M96.6730994,26.6666016 L73.3853801,26.6666016 L73.3853801,21.6632812 C73.3853801,19.1548828 75.2384016,17.0732422 77.6769981,16.7199219 C79.5699805,18.8148437 82.2031189,20 85.0292398,20 C87.857115,20 90.4918129,18.8132812 92.3847953,16.7150391 C94.8050682,17.0566406 96.6730994,19.1466797 96.6730994,21.6632812 L96.6730994,26.6666016 Z" id="Shape" fill="#FF8282"></path>
            <path d="M15.165692,70 C9.66315789,70 5.18518519,74.4849609 5.18518519,80 C5.18518519,85.5150391 9.66315789,90 15.165692,90 C20.6682261,90 25.1461988,85.5150391 25.1461988,80 C25.1461988,74.4849609 20.6682261,70 15.165692,70 Z M15.165692,86.6666016 C11.4961014,86.6666016 8.51208577,83.6765625 8.51208577,80 C8.51208577,76.3232422 11.4962963,73.3333984 15.165692,73.3333984 C18.8350877,73.3333984 21.8192982,76.3234375 21.8192982,80 C21.8192982,83.6767578 18.8352827,86.6666016 15.165692,86.6666016 Z" id="Shape" fill="#FF8282"></path>
            <path d="M21.8226121,83.3333984 L21.7810916,83.3333984 C21.2604288,83.3333984 20.7680312,83.5783203 20.4536062,83.9951172 C19.1744639,85.6933594 17.2465887,86.6667969 15.1654971,86.6667969 C13.0846004,86.6667969 11.1567251,85.6935547 9.87758285,83.9951172 C9.56315789,83.5785156 9.02923977,83.3333984 8.508577,83.3333984 C3.92417154,83.3333984 0.194736842,87.0701172 0.194736842,91.6634766 L0.194736842,98.3333984 C0.194931774,99.2533203 0.940155945,100 1.8582846,100 L28.4729045,100 C29.3910331,100 30.1362573,99.2533203 30.1362573,98.3333984 L30.1362573,91.6634766 C30.1364522,87.0699219 26.4070175,83.3333984 21.8226121,83.3333984 Z M26.8095517,96.6666016 L3.52183236,96.6666016 L3.52183236,91.6632812 C3.52183236,89.1548828 5.3748538,87.0732422 7.81345029,86.7199219 C9.70643275,88.8150391 12.3395712,90 15.165692,90 C17.9935673,90 20.6282651,88.8132812 22.5212476,86.7150391 C24.9415205,87.0566406 26.8095517,89.1466797 26.8095517,91.6632812 L26.8095517,96.6666016 Z" id="Shape" fill="#FF8282"></path>
            <path d="M85.0292398,70 C79.5267057,70 75.0487329,74.4849609 75.0487329,80 C75.0487329,85.5150391 79.5267057,90 85.0292398,90 C90.5317739,90 95.0097466,85.5150391 95.0097466,80 C95.0097466,74.4849609 90.5317739,70 85.0292398,70 Z M85.0292398,86.6666016 C81.3596491,86.6666016 78.3756335,83.6765625 78.3756335,80 C78.3756335,76.3232422 81.3598441,73.3333984 85.0292398,73.3333984 C88.6988304,73.3333984 91.682846,76.3234375 91.682846,80 C91.682846,83.6767578 88.6988304,86.6666016 85.0292398,86.6666016 Z" id="Shape" fill="#FF8282"></path>
            <path d="M91.6861598,83.3333984 L91.6446394,83.3333984 C91.1239766,83.3333984 90.6315789,83.5783203 90.317154,83.9951172 C89.0380117,85.6933594 87.1101365,86.6667969 85.0290448,86.6667969 C82.9481481,86.6667969 81.0202729,85.6935547 79.7411306,83.9951172 C79.4267057,83.5785156 78.8927875,83.3333984 78.3721248,83.3333984 C73.7877193,83.3333984 70.0582846,87.0701172 70.0582846,91.6634766 L70.0582846,98.3333984 C70.0582846,99.2533203 70.8035088,100 71.7216374,100 L98.3362573,100 C99.254386,100 99.9996101,99.2533203 99.9996101,98.3333984 L99.9996101,91.6634766 C100,87.0699219 96.2705653,83.3333984 91.6861598,83.3333984 Z M96.6730994,96.6666016 L73.3853801,96.6666016 L73.3853801,91.6632812 C73.3853801,89.1548828 75.2384016,87.0732422 77.6769981,86.7199219 C79.5699805,88.8148437 82.2031189,90 85.0292398,90 C87.857115,90 90.4918129,88.8132812 92.3847953,86.7150391 C94.8050682,87.0566406 96.6730994,89.1466797 96.6730994,91.6632812 L96.6730994,96.6666016 Z" id="Shape" fill="#FF8282"></path>
            <path d="M73.3803119,43.3333984 L43.4471735,43.3333984 C41.6107212,43.3333984 40.1169591,44.8300781 40.1169591,46.6701172 L40.1169591,66.6634766 C40.1169591,68.5035156 41.6107212,70.0001953 43.4487329,70.0001953 L59.3892788,70.0001953 L68.8824561,79.5119141 C69.2001949,79.8302734 69.6259259,80.0001953 70.0584795,80.0001953 C70.2730994,80.0001953 70.4892788,79.9585937 70.6955166,79.8734375 C71.3159844,79.6150391 71.7218324,79.0068359 71.7218324,78.3333984 L71.7218324,70 L73.3818713,70 C75.2183236,70 76.7120858,68.5033203 76.7120858,66.6617187 L76.7120858,46.6699219 C76.7120858,44.8300781 75.2183236,43.3333984 73.3803119,43.3333984 Z M73.3820663,66.6666016 L70.0584795,66.6666016 C69.1403509,66.6666016 68.3951267,67.4132812 68.3951267,68.3332031 L68.3951267,74.3099609 L61.2539961,67.1548828 C60.942885,66.8416016 60.5187135,66.6666016 60.0779727,66.6666016 L43.4438596,66.6615234 L43.4438596,46.6699219 L43.4471735,46.6666016 L73.3853801,46.6699219 L73.3820663,66.6666016 Z" id="Shape" fill="#E53C3C"></path>
            <path d="M55.0826511,33.3333984 L25.1495127,33.3333984 C23.3130604,33.3333984 21.8192982,34.8300781 21.8192982,36.6701172 L21.8192982,56.6634766 C21.8192982,58.5035156 23.3130604,60.0001953 25.1495127,60.0001953 L26.8095517,60.0001953 L26.8095517,68.3335938 C26.8095517,69.0068359 27.2153996,69.6152344 27.8376218,69.8736328 C28.0423002,69.9585938 28.2584795,70.0003906 28.4730994,70.0003906 C28.905653,70.0003906 29.331384,69.8304688 29.6491228,69.5121094 L39.1423002,60.0003906 L41.7805068,60.0003906 C42.6986355,60.0003906 43.4438596,59.2537109 43.4438596,58.3337891 L43.4438596,46.6699219 L56.7512671,46.6666016 C57.6693957,46.6666016 58.4146199,45.9199219 58.4146199,45 L58.4146199,36.6699219 C58.4146199,34.8300781 56.9208577,33.3333984 55.0826511,33.3333984 Z M55.0877193,43.3333984 L43.4471735,43.3333984 C41.6107212,43.3333984 40.1169591,44.8300781 40.1169591,46.6701172 L40.1169591,56.6667969 L38.4536062,56.6667969 C38.0128655,56.6667969 37.588694,56.8417969 37.2775828,57.1550781 L30.1364522,64.3099609 L30.1364522,58.3332031 C30.1364522,57.4132813 29.3912281,56.6666016 28.4730994,56.6666016 L25.1461988,56.6632812 L25.1495127,36.6666016 L55.0877193,36.6699219 L55.0877193,43.3333984 Z" id="Shape" fill="#E53C3C"></path>
            <path d="M58.4146199,51.6666016 L48.4341131,51.6666016 C47.5159844,51.6666016 46.7707602,52.4132812 46.7707602,53.3332031 C46.7707602,54.253125 47.5159844,54.9998047 48.4341131,54.9998047 L58.4146199,54.9998047 C59.3327485,54.9998047 60.0779727,54.253125 60.0779727,53.3332031 C60.0779727,52.4132812 59.3327485,51.6666016 58.4146199,51.6666016 Z" id="Shape" fill="#E53C3C"></path>
            <path d="M68.3951267,51.6666016 L65.0682261,51.6666016 C64.1500975,51.6666016 63.4048733,52.4132812 63.4048733,53.3332031 C63.4048733,54.253125 64.1500975,54.9998047 65.0682261,54.9998047 L68.3951267,54.9998047 C69.3132554,54.9998047 70.0584795,54.253125 70.0584795,53.3332031 C70.0584795,52.4132812 69.3132554,51.6666016 68.3951267,51.6666016 Z" id="Shape" fill="#E53C3C"></path>
            <path d="M68.3951267,58.3333984 L58.4146199,58.3333984 C57.4964912,58.3333984 56.7512671,59.0800781 56.7512671,60 C56.7512671,60.9199219 57.4964912,61.6666016 58.4146199,61.6666016 L68.3951267,61.6666016 C69.3132554,61.6666016 70.0584795,60.9199219 70.0584795,60 C70.0584795,59.0800781 69.3132554,58.3333984 68.3951267,58.3333984 Z" id="Shape" fill="#E53C3C"></path>
            <path d="M51.7608187,58.3333984 L48.4339181,58.3333984 C47.5157895,58.3333984 46.7705653,59.0800781 46.7705653,60 C46.7705653,60.9199219 47.5157895,61.6666016 48.4339181,61.6666016 L51.7608187,61.6666016 C52.6789474,61.6666016 53.4241715,60.9199219 53.4241715,60 C53.4241715,59.0800781 52.6791423,58.3333984 51.7608187,58.3333984 Z" id="Shape" fill="#E53C3C"></path>
        </g>
    </g>
</svg>