<svg id="Capa_1" data-name="Capa 1" xmlns="http://www.w3.org/2000/svg" viewBox="0 0 512 512"><defs><style>.cls-1{fill:#f9f9f9;}.cls-2{fill:#ff5a7a;}</style></defs><title>amenities</title><circle class="cls-1" cx="256" cy="256" r="256"/><path class="cls-2" d="M384.24,283.6h-4V246.8a23,23,0,0,0-23-23H306.61a22.92,22.92,0,0,0-18.4,9.34,22.92,22.92,0,0,0-18.4-9.34H219.19a23,23,0,0,0-23,23V283.6h-4a19,19,0,0,0-19,19v21.84A19,19,0,0,0,187,342.61v23.81a4.6,4.6,0,0,0,4.6,4.6h13.8a4.6,4.6,0,0,0,4.6-4.6v-23H366.42v23A4.6,4.6,0,0,0,371,371h13.8a4.6,4.6,0,0,0,4.6-4.6V342.61a19,19,0,0,0,13.8-18.18V302.59A19,19,0,0,0,384.24,283.6ZM306.61,233h50.61A13.8,13.8,0,0,1,371,246.8V283.6H292.81V246.8A13.8,13.8,0,0,1,306.61,233ZM205.39,246.8a13.8,13.8,0,0,1,13.8-13.8H269.8a13.8,13.8,0,0,1,13.8,13.8V283.6H205.39Zm-13.22,46H384.24a9.8,9.8,0,0,1,9.79,9.79v17.82H182.39V302.59A9.8,9.8,0,0,1,192.17,292.81Zm8.62,69h-4.6v-18.4h4.6Zm179.43,0h-4.6v-18.4h4.6Zm4-27.6H192.17a9.76,9.76,0,0,1-8.28-4.6H392.51A9.76,9.76,0,0,1,384.24,334.21Z"/><path class="cls-2" d="M242.2,246.8A13.8,13.8,0,1,0,256,260.6,13.8,13.8,0,0,0,242.2,246.8Zm0,18.4a4.6,4.6,0,1,1,4.6-4.6A4.6,4.6,0,0,1,242.2,265.2Z"/><path class="cls-2" d="M334.21,274.4a13.8,13.8,0,1,0-13.8-13.8A13.8,13.8,0,0,0,334.21,274.4Zm0-18.4a4.6,4.6,0,1,1-4.6,4.6A4.6,4.6,0,0,1,334.21,256Z"/><path class="cls-2" d="M173.19,348h-13.8V214.59h23a4.6,4.6,0,0,0,4.5-5.56l-13.8-64.41a4.6,4.6,0,0,0-4.5-3.64H127.18a4.6,4.6,0,0,0-4.5,3.64L108.88,209a4.6,4.6,0,0,0,4.5,5.56h23V348h-13.8a4.6,4.6,0,0,0-4.6,4.6v13.8a4.6,4.6,0,0,0,4.6,4.6h50.61a4.6,4.6,0,0,0,4.6-4.6v-13.8A4.6,4.6,0,0,0,173.19,348ZM130.9,150.18h34l11.83,55.21H119.07Zm14.68,64.41h4.6V348h-4.6Zm23,147.22H127.18v-4.6h41.41Z"/></svg>