<svg id="Capa_1" data-name="Capa 1" xmlns="http://www.w3.org/2000/svg" viewBox="0 0 512 512"><defs><style>.cls-1{fill:#f9f9f9;}.cls-2{fill:#ff5a7a;}</style></defs><title>amenities</title><circle class="cls-1" cx="256" cy="256" r="256"/><path class="cls-2" d="M138.93,309.66a19.51,19.51,0,1,0,19.51,19.51A19.51,19.51,0,0,0,138.93,309.66Zm0,29.27a9.76,9.76,0,1,1,9.76-9.76A9.76,9.76,0,0,1,138.93,338.92Z"/><path class="cls-2" d="M114.54,402.34a4.88,4.88,0,0,0,4.88-4.88V382.82a19.51,19.51,0,0,1,39,0v14.63a4.88,4.88,0,1,0,9.76,0V382.82a29.27,29.27,0,1,0-58.53,0v14.63A4.88,4.88,0,0,0,114.54,402.34Z"/><path class="cls-2" d="M236.49,329.17A19.51,19.51,0,1,0,217,348.68,19.51,19.51,0,0,0,236.49,329.17Zm-29.27,0a9.76,9.76,0,1,1,9.76,9.76A9.76,9.76,0,0,1,207.22,329.17Z"/><path class="cls-2" d="M241.37,402.34a4.88,4.88,0,0,0,4.88-4.88V382.82a29.27,29.27,0,1,0-58.53,0v14.63a4.88,4.88,0,1,0,9.76,0V382.82a19.51,19.51,0,0,1,39,0v14.63A4.88,4.88,0,0,0,241.37,402.34Z"/><path class="cls-2" d="M314.53,329.17A19.51,19.51,0,1,0,295,348.68,19.51,19.51,0,0,0,314.53,329.17Zm-29.27,0a9.76,9.76,0,1,1,9.76,9.76A9.76,9.76,0,0,1,285.27,329.17Z"/><path class="cls-2" d="M319.41,402.34a4.88,4.88,0,0,0,4.88-4.88V382.82a29.27,29.27,0,1,0-58.53,0v14.63a4.88,4.88,0,1,0,9.76,0V382.82a19.51,19.51,0,0,1,39,0v14.63A4.88,4.88,0,0,0,319.41,402.34Z"/><path class="cls-2" d="M392.58,329.17a19.51,19.51,0,1,0-19.51,19.51A19.51,19.51,0,0,0,392.58,329.17Zm-29.27,0a9.76,9.76,0,1,1,9.76,9.76A9.76,9.76,0,0,1,363.31,329.17Z"/><path class="cls-2" d="M373.07,353.56a29.3,29.3,0,0,0-29.27,29.27v14.63a4.88,4.88,0,1,0,9.76,0V382.82a19.51,19.51,0,0,1,39,0v14.63a4.88,4.88,0,1,0,9.76,0V382.82A29.3,29.3,0,0,0,373.07,353.56Z"/><path class="cls-2" d="M138.93,217a19.51,19.51,0,1,0,19.51,19.51A19.51,19.51,0,0,0,138.93,217Zm0,29.27a9.76,9.76,0,1,1,9.76-9.76A9.76,9.76,0,0,1,138.93,246.24Z"/><path class="cls-2" d="M114.54,309.66a4.88,4.88,0,0,0,4.88-4.88V290.14a19.51,19.51,0,0,1,39,0v14.63a4.88,4.88,0,1,0,9.76,0V290.14a29.27,29.27,0,1,0-58.53,0v14.63A4.88,4.88,0,0,0,114.54,309.66Z"/><path class="cls-2" d="M236.49,236.49A19.51,19.51,0,1,0,217,256,19.51,19.51,0,0,0,236.49,236.49Zm-29.27,0a9.76,9.76,0,1,1,9.76,9.76A9.76,9.76,0,0,1,207.22,236.49Z"/><path class="cls-2" d="M246.24,290.14a29.27,29.27,0,1,0-58.53,0v14.63a4.88,4.88,0,1,0,9.76,0V290.14a19.51,19.51,0,0,1,39,0v14.63a4.88,4.88,0,1,0,9.76,0Z"/><path class="cls-2" d="M314.53,236.49A19.51,19.51,0,1,0,295,256,19.51,19.51,0,0,0,314.53,236.49Zm-29.27,0a9.76,9.76,0,1,1,9.76,9.76A9.76,9.76,0,0,1,285.27,236.49Z"/><path class="cls-2" d="M324.29,290.14a29.27,29.27,0,1,0-58.53,0v14.63a4.88,4.88,0,1,0,9.76,0V290.14a19.51,19.51,0,0,1,39,0v14.63a4.88,4.88,0,1,0,9.76,0Z"/><path class="cls-2" d="M373.07,256a19.51,19.51,0,1,0-19.51-19.51A19.51,19.51,0,0,0,373.07,256Zm0-29.27a9.76,9.76,0,1,1-9.76,9.76A9.76,9.76,0,0,1,373.07,226.73Z"/><path class="cls-2" d="M373.07,260.88a29.3,29.3,0,0,0-29.27,29.27v14.63a4.88,4.88,0,1,0,9.76,0V290.14a19.51,19.51,0,0,1,39,0v14.63a4.88,4.88,0,1,0,9.76,0V290.14A29.3,29.3,0,0,0,373.07,260.88Z"/><path class="cls-2" d="M363.31,202.34v-87.8a4.88,4.88,0,0,0-4.88-4.88H153.57a4.88,4.88,0,0,0-4.88,4.88v87.8a4.88,4.88,0,0,0,4.88,4.88H358.43A4.88,4.88,0,0,0,363.31,202.34Zm-9.76-4.88H158.44v-78H353.56Z"/><path class="cls-2" d="M304.78,182.83c19.15,0,34.14-10.73,34.14-24.39s-15-24.39-34.14-24.39-34.14,10.73-34.14,24.39S285.63,182.83,304.78,182.83Zm24.39-24.39A12.76,12.76,0,0,1,322,168.72l-12.3-12.29v-12.3C320.64,145.52,329.17,151.51,329.17,158.44ZM299.9,144.12v14.32a4.88,4.88,0,0,0,1.43,3.45l10.47,10.47a38,38,0,0,1-7,.72c-13.22,0-24.39-6.7-24.39-14.63C280.39,151.51,288.92,145.52,299.9,144.12Z"/><path class="cls-2" d="M173.08,143.81h9.76a4.88,4.88,0,1,0,0-9.76h-9.76a4.88,4.88,0,1,0,0,9.76Z"/><path class="cls-2" d="M197.47,143.81h53.66a4.88,4.88,0,0,0,0-9.76H197.47a4.88,4.88,0,0,0,0,9.76Z"/><path class="cls-2" d="M173.08,163.32h53.66a4.88,4.88,0,0,0,0-9.76H173.08a4.88,4.88,0,1,0,0,9.76Z"/><path class="cls-2" d="M251.12,153.57h-9.76a4.88,4.88,0,0,0,0,9.76h9.76a4.88,4.88,0,0,0,0-9.76Z"/><path class="cls-2" d="M173.08,182.83h24.39a4.88,4.88,0,1,0,0-9.76H173.08a4.88,4.88,0,1,0,0,9.76Z"/><path class="cls-2" d="M251.12,173.08h-39a4.88,4.88,0,1,0,0,9.76h39a4.88,4.88,0,1,0,0-9.76Z"/></svg>