<svg id="Capa_1" data-name="Capa 1" xmlns="http://www.w3.org/2000/svg" viewBox="0 0 512 512"><defs><style>.cls-1{fill:#f9f9f9;}.cls-2{fill:#ff5a7a;}.cls-3{fill:none;}</style></defs><title>amenities</title><circle class="cls-1" cx="256" cy="256" r="256"/><path class="cls-2" d="M407.67,208.28a214.7,214.7,0,0,0-303.35,0,5.58,5.58,0,1,0,7.91,7.88,203.55,203.55,0,0,1,287.56,0,5.57,5.57,0,1,0,7.88-7.88Zm0,0"/><rect class="cls-3" x="102.69" y="141.24" width="306.58" height="229.51"/><path class="cls-2" d="M137.16,241.08a5.59,5.59,0,0,0,0,7.91,5.53,5.53,0,0,0,4,1.64A5.46,5.46,0,0,0,145,249c61.19-61.18,160.74-61.18,221.93,0a5.58,5.58,0,0,0,7.88-7.91c-65.52-65.52-172.16-65.52-237.68,0Zm0,0"/><path class="cls-2" d="M256,238.33a120.85,120.85,0,0,0-86,35.59,5.58,5.58,0,0,0,7.88,7.9,110.63,110.63,0,0,1,156.26,0,5.58,5.58,0,0,0,7.88-7.9,120.79,120.79,0,0,0-86-35.59Zm0,0"/><path class="cls-2" d="M256,290.87a36.59,36.59,0,1,0,36.56,36.59A36.63,36.63,0,0,0,256,290.87Zm0,62a25.41,25.41,0,1,1,25.41-25.42A25.44,25.44,0,0,1,256,352.88Zm0,0"/></svg>