<svg id="Layer_1" data-name="Layer 1" xmlns="http://www.w3.org/2000/svg" viewBox="0 0 623.63 572.89"><defs><style>.cls-1{fill:#375d96;}.cls-2{fill:#f26444;}</style></defs><title>building</title><path class="cls-1" d="M260.82,329.65H261l73.73-1.81a3.53,3.53,0,0,0,3.43-3.57V209.21a3.46,3.46,0,0,0-1.23-2.72,3.58,3.58,0,0,0-3-.78L260.17,219.9a3.48,3.48,0,0,0-2.85,3.43V326.1a3.51,3.51,0,0,0,3.5,3.55Zm0,0" transform="translate(-45.71 -57.33)"/><path class="cls-1" d="M167.84,331.86h.07l52.1-1.23a3.58,3.58,0,0,0,3.43-3.57V231.17a3.28,3.28,0,0,0-1.29-2.65,3.39,3.39,0,0,0-2.92-.78l-52.1,10a3.64,3.64,0,0,0-2.85,3.5v87.15a3.72,3.72,0,0,0,1,2.54,3.63,3.63,0,0,0,2.52,1Zm0,0" transform="translate(-45.71 -57.33)"/><path class="cls-1" d="M99.35,333.55h.07l38.75-1a3.43,3.43,0,0,0,3.43-3.5V247a3.51,3.51,0,0,0-4.21-3.5L98.7,250.93a3.54,3.54,0,0,0-2.9,3.43V330a3.38,3.38,0,0,0,1.09,2.52,3.56,3.56,0,0,0,2.46,1Zm0,0" transform="translate(-45.71 -57.33)"/><path class="cls-1" d="M260.17,466.56l73.73,14.71c.27,0,.45.07.71.07a3.81,3.81,0,0,0,2.27-.85,3.62,3.62,0,0,0,1.29-2.72V362.64a3.55,3.55,0,0,0-3.43-3.5L261,356.8a3.38,3.38,0,0,0-2.54,1,3.35,3.35,0,0,0-1.09,2.52V463.06a3.52,3.52,0,0,0,2.85,3.5Zm0,0" transform="translate(-45.71 -57.33)"/><path class="cls-1" d="M98.63,434.3,137.38,442a2.67,2.67,0,0,0,.71.07,3.5,3.5,0,0,0,3.5-3.5V356.42a3.51,3.51,0,0,0-3.43-3.5l-38.68-1.29a3.86,3.86,0,0,0-2.59,1,3.33,3.33,0,0,0-1,2.52V430.8a3.47,3.47,0,0,0,2.79,3.5Zm0,0" transform="translate(-45.71 -57.33)"/><path class="cls-2" d="M663.18,174.28s-251.54-116-251.59-116a10,10,0,0,0-4.41-1,10.2,10.2,0,0,0-3.5.6c-.07,0-350.84,126.34-350.84,126.34a10.62,10.62,0,0,0-7.07,10l-.07,45.61a10.66,10.66,0,0,0,10.63,10.63,11,11,0,0,0,2.52-.27l7.51-1.87-.13,249.78a10.57,10.57,0,0,0,6.93,10L403.55,629.51a9.9,9.9,0,0,0,3.63.71,10.77,10.77,0,0,0,4.53-1L644.9,519.44a10.59,10.59,0,0,0,6.09-9.59V241.41l4.54,1.43a10.58,10.58,0,0,0,3.23.45,10.32,10.32,0,0,0,6.22-2,10.46,10.46,0,0,0,4.35-8.54V183.87a10.39,10.39,0,0,0-6.15-9.59ZM396.62,604.38,223.43,540.68V359a3.52,3.52,0,0,0-3.43-3.5l-52.1-1.69a3.69,3.69,0,0,0-3.63,3.57V519L87.44,490.72,87.55,243l309.06-76.65ZM529.06,462a3.56,3.56,0,0,1-2.67,3.43l-56.63,14.45a1.82,1.82,0,0,1-.83.13,3.93,3.93,0,0,1-2.21-.71,3.74,3.74,0,0,1-1.36-2.79V362.44a3.57,3.57,0,0,1,3.43-3.5l56.63-2.34a3.56,3.56,0,0,1,3.63,3.57Zm0-135.81a3.4,3.4,0,0,1-1.11,2.54,3.47,3.47,0,0,1-2.45,1h-.07L468.8,328a3.52,3.52,0,0,1-3.43-3.5v-114a3.51,3.51,0,0,1,1.36-2.79,3.37,3.37,0,0,1,3-.65l56.58,13.93a3.47,3.47,0,0,1,2.72,3.43Zm94.46,111.71a3.55,3.55,0,0,1-2.65,3.43l-35.45,9.07a4.12,4.12,0,0,1-.91.07,3.8,3.8,0,0,1-2.14-.71A3.48,3.48,0,0,1,581,447V357.78a3.6,3.6,0,0,1,3.38-3.57l35.43-1.43a3.81,3.81,0,0,1,2.6,1,3.71,3.71,0,0,1,1.09,2.6Zm0-109.57a3.45,3.45,0,0,1-1.09,2.54,3.51,3.51,0,0,1-2.47,1h-.13l-35.43-1.16a3.57,3.57,0,0,1-3.43-3.57V238.82a3.71,3.71,0,0,1,1.36-2.79,3.92,3.92,0,0,1,3-.65l35.45,8.74a3.6,3.6,0,0,1,2.72,3.43Zm0,0" transform="translate(-45.71 -57.33)"/></svg>