<svg id="Layer_1" data-name="Layer 1" xmlns="http://www.w3.org/2000/svg" viewBox="0 0 695.49 695.49"><defs><style>.cls-1{fill:#365d96;}.cls-2{fill:#fa6541;}</style></defs><title>community</title><path class="cls-1" d="M407.83,402.22a108.95,108.95,0,1,0-120.18,0c-66.55,24.56-114.23,88.44-114.23,163.42h29.05c0-80.1,65.16-145.26,145.26-145.26S493,485.54,493,565.64h29.05C522.06,490.66,474.39,426.78,407.83,402.22Zm-140-90.79a79.9,79.9,0,1,1,79.9,79.9A80,80,0,0,1,267.85,311.43Z"/><path class="cls-2" d="M553.1,329.59a108.84,108.84,0,1,0-153.8-146.08A137.84,137.84,0,0,1,425,197.12a80.37,80.37,0,0,1,19.5-21.64A79.75,79.75,0,1,1,493,318.69c-2.57,0-5.1-.15-7.61-.39a137.23,137.23,0,0,1-4.89,30.33c4.15-.36,8.26-.89,12.5-.89a145.36,145.36,0,0,1,17.4,1.14c71.91,8.64,127.86,69.92,127.86,144.12h29.05C667.33,418,619.65,354.15,553.1,329.59Z"/><path class="cls-2" d="M202.48,347.74c4.25,0,8.35.53,12.5.89a137.23,137.23,0,0,1-4.89-30.33c-2.51.24-5,.39-7.61.39A79.9,79.9,0,1,1,251,175.48a80.37,80.37,0,0,1,19.5,21.64,137.84,137.84,0,0,1,25.68-13.61A108.86,108.86,0,1,0,142.39,329.59C75.84,354.15,28.16,418,28.16,493H57.22c0-74.2,56-135.48,127.86-144.12A145.36,145.36,0,0,1,202.48,347.74Z"/></svg>